<svg xmlns="http://www.w3.org/2000/svg" width="15.97" height="16" viewBox="0 0 15.97 16">
  <metadata><?xpacket begin="﻿" id="W5M0MpCehiHzreSzNTczkc9d"?>
<x:xmpmeta xmlns:x="adobe:ns:meta/" x:xmptk="Adobe XMP Core 5.6-c138 79.159824, 2016/09/14-01:09:01        ">
   <rdf:RDF xmlns:rdf="http://www.w3.org/1999/02/22-rdf-syntax-ns#">
      <rdf:Description rdf:about=""/>
   </rdf:RDF>
</x:xmpmeta>





















<?xpacket end="w"?></metadata>
<defs>
    <style>
      .cls-1 {
        fill: #151515;
        fill-rule: evenodd;
        opacity: 0.2;
      }
    </style>
  </defs>
  <path d="M1507.6,334.763l-3.67-3.729a6.627,6.627,0,0,0,.98-3.481,6.456,6.456,0,1,0-6.45,6.554,6.38,6.38,0,0,0,3.69-1.175l3.63,3.685a1.273,1.273,0,0,0,1.82,0A1.315,1.315,0,0,0,1507.6,334.763Zm-9.14-2.78a4.43,4.43,0,1,1,4.36-4.43A4.4,4.4,0,0,1,1498.46,331.983Z" transform="translate(-1492 -321)"/>
</svg>
