<svg id="58b3ab8e-6f71-4888-a4a0-9ee2cc8e36a5" data-name="Capa 1" xmlns="http://www.w3.org/2000/svg" viewBox="0 0 561.1167 331.5"><title>icon1</title><g id="0361f2ab-80c1-44ad-981e-dd2c85c9af3d" data-name="group-add"><path d="M280.5,153c43.35,0,76.5-33.15,76.5-76.5S323.85,0,280.5,0c-7.65,0-15.3,2.55-22.95,2.55,15.3,22.95,22.95,45.9,22.95,73.95s-7.65,51-22.95,73.95C265.2,150.45,272.85,153,280.5,153ZM153,153c43.35,0,76.5-33.15,76.5-76.5S196.35,0,153,0,76.5,33.15,76.5,76.5,109.65,153,153,153Zm168.3,56.1c20.4,17.851,35.7,43.351,35.7,71.4v51h76.5v-51C433.5,242.25,372.3,216.75,321.3,209.1ZM153,204C102,204,0,229.5,0,280.5v51H306v-51C306,229.5,204,204,153,204Z" fill="#34a844"/><path d="M484.6167,76.5c0-43.35-33.15-76.5-76.5-76.5-7.65,0-15.3,2.55-22.95,2.55,15.3,22.95,22.95,45.9,22.95,73.95s-7.65,51-22.95,73.95c7.65,0,15.3,2.55,22.95,2.55C451.46667,153,484.6167,119.85,484.6167,76.5Z" fill="#34a844"/><path d="M448.91669,209.1c20.4,17.851,35.7,43.351,35.7,71.4v51h76.5v-51C561.1167,242.25,499.91669,216.75,448.91669,209.1Z" fill="#34a844"/></g></svg>