<svg data-name="Слой 1" xmlns="http://www.w3.org/2000/svg" viewBox="0 0 123.421 23.168"><path d="M8.734 13.76H5.151v9.024H0V.384h5.15V9.44h3.712L14.75.384h5.47L12.894 11.2l7.55 11.584h-5.887zM27.473 21.664a11.158 11.158 0 0 1-4.383-4.144 11.314 11.314 0 0 1-1.584-5.936 11.318 11.318 0 0 1 1.584-5.936 11.164 11.164 0 0 1 4.383-4.143A13.067 13.067 0 0 1 33.76 0a12.977 12.977 0 0 1 6.271 1.504 11.207 11.207 0 0 1 5.983 10.08 11.209 11.209 0 0 1-5.983 10.08 12.976 12.976 0 0 1-6.27 1.504 13.067 13.067 0 0 1-6.288-1.504zm9.87-3.824a6.544 6.544 0 0 0 2.512-2.544 7.48 7.48 0 0 0 .912-3.712 7.48 7.48 0 0 0-.912-3.712 6.544 6.544 0 0 0-2.511-2.544 7.495 7.495 0 0 0-7.167 0 6.542 6.542 0 0 0-2.512 2.544 7.485 7.485 0 0 0-.912 3.712 7.486 7.486 0 0 0 .912 3.712 6.542 6.542 0 0 0 2.512 2.544 7.499 7.499 0 0 0 7.167 0zM70.029.384v22.4h-5.12V4.608h-7.678l-.16 4.672a47.833 47.833 0 0 1-.768 7.728 9.572 9.572 0 0 1-2.031 4.544 5.08 5.08 0 0 1-3.984 1.584 11.552 11.552 0 0 1-2.56-.352l.32-4.384a3.14 3.14 0 0 0 .929.128q1.855 0 2.59-2.192a26.834 26.834 0 0 0 .93-6.864l.319-9.088z" fill="#111"/><path d="M80.283 21.664a11.158 11.158 0 0 1-4.384-4.144 11.314 11.314 0 0 1-1.583-5.936 11.318 11.318 0 0 1 1.583-5.936 11.164 11.164 0 0 1 4.384-4.143 13.856 13.856 0 0 1 12.558 0 11.207 11.207 0 0 1 5.983 10.079 11.209 11.209 0 0 1-5.983 10.08 13.86 13.86 0 0 1-12.558 0zm9.87-3.824a6.544 6.544 0 0 0 2.512-2.544 7.48 7.48 0 0 0 .912-3.712 7.48 7.48 0 0 0-.912-3.712 6.544 6.544 0 0 0-2.512-2.544 7.495 7.495 0 0 0-7.167 0 6.542 6.542 0 0 0-2.511 2.544 7.485 7.485 0 0 0-.912 3.712 7.486 7.486 0 0 0 .912 3.712 6.542 6.542 0 0 0 2.511 2.544 7.499 7.499 0 0 0 7.167 0z" fill="#309c3f"/><path d="M107.983 21.68a11.104 11.104 0 0 1-4.35-4.128 11.376 11.376 0 0 1-1.585-5.968 11.376 11.376 0 0 1 1.584-5.968 11.097 11.097 0 0 1 4.351-4.128 13.88 13.88 0 0 1 11.487-.464 10.544 10.544 0 0 1 3.95 2.944l-3.327 3.072a7.155 7.155 0 0 0-5.63-2.624 7.477 7.477 0 0 0-3.712.912 6.482 6.482 0 0 0-2.543 2.544 7.48 7.48 0 0 0-.912 3.712 7.48 7.48 0 0 0 .912 3.712 6.482 6.482 0 0 0 2.543 2.544 7.477 7.477 0 0 0 3.711.912 7.118 7.118 0 0 0 5.631-2.656l3.328 3.072a10.367 10.367 0 0 1-3.967 2.976 13.168 13.168 0 0 1-5.28 1.024 12.86 12.86 0 0 1-6.19-1.488z" fill="#111"/></svg>