<svg style="position:absolute;width:0;height:0" width="0" height="0" xmlns="http://www.w3.org/2000/svg"><defs><symbol id="icon-arrow" viewBox="0 0 408 408" xmlns="http://www.w3.org/2000/svg"><path d="M408 178.5H96.9L239.7 35.7 204 0 0 204l204 204 35.7-35.7L96.9 229.5H408v-51z"/></symbol><symbol id="icon-arrow-two" viewBox="0 0 306 306" xmlns="http://www.w3.org/2000/svg"><path d="M94.35 0l-35.7 35.7L175.95 153 58.65 270.3l35.7 35.7 153-153z"/></symbol><symbol id="icon-play" viewBox="0 0 232.153 232.153" xmlns="http://www.w3.org/2000/svg"><path d="M203.791 99.628L49.307 2.294C44.74-.425 39.069.028 34.786.028 17.654.028 17.73 13.255 17.73 16.606v198.94c0 2.833-.075 16.579 17.056 16.579 4.283 0 9.955.451 14.521-2.267l154.483-97.333c12.68-7.545 10.489-16.449 10.489-16.449s2.192-8.904-10.488-16.448z" fill-rule="evenodd" clip-rule="evenodd"/></symbol><symbol id="icon-menu" viewBox="0 0 396.667 396.667" xmlns="http://www.w3.org/2000/svg"><path d="M17 87.833h362.667c9.35 0 17-7.65 17-17s-7.65-17-17-17H17c-9.35 0-17 7.65-17 17s7.65 17 17 17zm0 127.5h362.667c9.35 0 17-7.65 17-17s-7.65-17-17-17H17c-9.35 0-17 7.65-17 17s7.65 17 17 17zm0 127.5h362.667c9.35 0 17-7.65 17-17s-7.65-17-17-17H17c-9.35 0-17 7.65-17 17s7.65 17 17 17z"/></symbol><symbol id="icon-cross" viewBox="0 0 47.971 47.971" xmlns="http://www.w3.org/2000/svg"><path d="M28.228 23.986L47.092 5.122a2.998 2.998 0 0 0 0-4.242 2.998 2.998 0 0 0-4.242 0L23.986 19.744 5.121.88a2.998 2.998 0 0 0-4.242 0 2.998 2.998 0 0 0 0 4.242l18.865 18.864L.879 42.85a2.998 2.998 0 1 0 4.242 4.241l18.865-18.864L42.85 47.091c.586.586 1.354.879 2.121.879s1.535-.293 2.121-.879a2.998 2.998 0 0 0 0-4.242L28.228 23.986z"/></symbol><symbol id="icon-subscr" viewBox="0 0 486.982 486.982" xmlns="http://www.w3.org/2000/svg"><path d="M131.35 422.969c14.6 14.6 38.3 14.6 52.9 0l181.1-181.1c5.2-5.2 9.2-11.4 11.8-18 18.2 5.1 35.9 7.8 51.5 7.7 38.6-.2 51.4-17.1 55.6-27.2 4.2-10 7.2-31-19.9-58.6l-.9-.9c-16.8-16.8-41.2-32.3-68.9-43.8-5.1-2.1-10.2-4-15.2-5.8v-.3c-.3-22.2-18.2-40.1-40.4-40.4l-108.5-1.5c-14.4-.2-28.2 5.4-38.3 15.6l-181.2 181.1c-14.6 14.6-14.6 38.3 0 52.9l120.4 120.3zm139.6-305.1c12.1-12.1 31.7-12.1 43.8 0 7.2 7.2 10.1 17.1 8.7 26.4 11.9 8.4 26.1 16.2 41.3 22.5 5.4 2.2 10.6 4.2 15.6 5.9l-.6-43.6c.9.4 1.7.7 2.6 1.1 23.7 9.9 45 23.3 58.7 37l.6.6c13 13.3 14.4 21.8 13.3 24.4-3.4 8.1-39.9 15.3-95.3-7.8-16.2-6.8-31.4-15.2-43.7-24.3-.4.5-.9 1-1.3 1.5-12.1 12.1-31.7 12.1-43.8 0-12-12-12-31.6.1-43.7z"/></symbol><symbol id="icon-instagram" viewBox="0 0 49.652 49.652" xmlns="http://www.w3.org/2000/svg"><path d="M24.825 29.796a4.978 4.978 0 0 0 4.972-4.97 4.954 4.954 0 0 0-.94-2.897 4.964 4.964 0 0 0-4.029-2.073c-1.659 0-3.126.82-4.031 2.072a4.947 4.947 0 0 0-.94 2.897 4.973 4.973 0 0 0 4.968 4.971zm10.853-11.05V13.96l-.623.002-4.164.013.016 4.787z"/><path d="M24.826 0C11.137 0 0 11.137 0 24.826c0 13.688 11.137 24.826 24.826 24.826 13.688 0 24.826-11.138 24.826-24.826C49.652 11.137 38.516 0 24.826 0zm14.119 21.929v11.56a5.463 5.463 0 0 1-5.457 5.458H16.164a5.462 5.462 0 0 1-5.457-5.458V16.165a5.462 5.462 0 0 1 5.457-5.457h17.323a5.463 5.463 0 0 1 5.458 5.457v5.764z"/><path d="M32.549 24.826c0 4.257-3.464 7.723-7.723 7.723s-7.722-3.466-7.722-7.723a7.67 7.67 0 0 1 .568-2.897h-4.215v11.56a2.706 2.706 0 0 0 2.706 2.704h17.323a2.707 2.707 0 0 0 2.706-2.704v-11.56h-4.217c.367.894.574 1.873.574 2.897z"/></symbol><symbol id="icon-facebook" viewBox="0 0 49.652 49.652" xmlns="http://www.w3.org/2000/svg"><path d="M24.826 0C11.137 0 0 11.137 0 24.826c0 13.688 11.137 24.826 24.826 24.826 13.688 0 24.826-11.138 24.826-24.826C49.652 11.137 38.516 0 24.826 0zM31 25.7h-4.039v14.396h-5.985V25.7h-2.845v-5.088h2.845v-3.291c0-2.357 1.12-6.04 6.04-6.04l4.435.017v4.939h-3.219c-.524 0-1.269.262-1.269 1.386v2.99h4.56L31 25.7z"/></symbol><symbol id="icon-vk" viewBox="0 0 97.75 97.75" xmlns="http://www.w3.org/2000/svg"><path d="M48.875 0C21.883 0 0 21.882 0 48.875S21.883 97.75 48.875 97.75 97.75 75.868 97.75 48.875 75.867 0 48.875 0zm24.792 54.161c2.278 2.225 4.688 4.319 6.733 6.774.906 1.086 1.76 2.209 2.41 3.472.928 1.801.09 3.776-1.522 3.883l-10.013-.002c-2.586.214-4.644-.829-6.379-2.597-1.385-1.409-2.67-2.914-4.004-4.371-.545-.598-1.119-1.161-1.803-1.604-1.365-.888-2.551-.616-3.333.81-.797 1.451-.979 3.059-1.055 4.674-.109 2.361-.821 2.978-3.19 3.089-5.062.237-9.865-.531-14.329-3.083-3.938-2.251-6.986-5.428-9.642-9.025-5.172-7.012-9.133-14.708-12.692-22.625-.801-1.783-.215-2.737 1.752-2.774 3.268-.063 6.536-.055 9.804-.003 1.33.021 2.21.782 2.721 2.037 1.766 4.345 3.931 8.479 6.644 12.313.723 1.021 1.461 2.039 2.512 2.76 1.16.796 2.044.533 2.591-.762.35-.823.501-1.703.577-2.585.26-3.021.291-6.041-.159-9.05-.28-1.883-1.339-3.099-3.216-3.455-.956-.181-.816-.535-.351-1.081.807-.944 1.563-1.528 3.074-1.528l11.313-.002c1.783.35 2.183 1.15 2.425 2.946l.01 12.572c-.021.695.349 2.755 1.597 3.21 1 .33 1.66-.472 2.258-1.105 2.713-2.879 4.646-6.277 6.377-9.794.764-1.551 1.423-3.156 2.063-4.764.476-1.189 1.216-1.774 2.558-1.754l10.894.013c.321 0 .647.003.965.058 1.836.314 2.339 1.104 1.771 2.895-.894 2.814-2.631 5.158-4.329 7.508-1.82 2.516-3.761 4.944-5.563 7.471-1.656 2.31-1.525 3.473.531 5.479z"/></symbol><symbol id="icon-checkbox" viewBox="0 0 512 512" xmlns="http://www.w3.org/2000/svg"><path d="M504.502 75.496c-9.997-9.998-26.205-9.998-36.204 0L161.594 382.203 43.702 264.311c-9.997-9.998-26.205-9.997-36.204 0-9.998 9.997-9.998 26.205 0 36.203l135.994 135.992c9.994 9.997 26.214 9.99 36.204 0L504.502 111.7c9.998-9.997 9.997-26.206 0-36.204z"/></symbol><symbol id="icon-advantage2" viewBox="0 0 512 512" xmlns="http://www.w3.org/2000/svg"><path d="M224 159.992v-32H32c-17.632 0-32 14.368-32 32v64h230.752c-4.448-19.552-6.752-40.608-6.752-64zm286.688 128c-21.824 33.632-55.104 62.24-102.784 89.632-7.328 4.192-15.584 6.368-23.904 6.368s-16.576-2.176-23.808-6.304c-47.68-27.456-80.96-56.096-102.816-89.696H0v160c0 17.664 14.368 32 32 32h448c17.664 0 32-14.336 32-32v-160h-1.312zm-366.688 96H80c-8.832 0-16-7.168-16-16s7.168-16 16-16h64c8.832 0 16 7.168 16 16s-7.168 16-16 16z"/><path d="M502.304 81.304l-112-48a16.058 16.058 0 0 0-12.64 0l-112 48C259.808 83.8 256 89.592 256 95.992v64c0 88.032 32.544 139.488 120.032 189.888 2.464 1.408 5.216 2.112 7.968 2.112s5.504-.704 7.968-2.112C479.456 299.608 512 248.152 512 159.992v-64c0-6.4-3.808-12.192-9.696-14.688zm-57.792 72.704l-64 80c-3.072 3.776-7.68 5.984-12.512 5.984h-.672a16.058 16.058 0 0 1-12.64-7.104l-32-48c-4.896-7.36-2.912-17.28 4.448-22.176 7.296-4.864 17.248-2.944 22.176 4.448l19.872 29.792 50.304-62.912c5.536-6.88 15.616-7.968 22.496-2.496 6.912 5.472 8 15.552 2.528 22.464z"/></symbol><symbol id="icon-advantage3" viewBox="0 0 511.996 511.996" xmlns="http://www.w3.org/2000/svg"><path d="M284.161 302.202l-25.504 13.312c-26.208 13.984-59.392 7.328-78.752-15.872l-12.544-15.04c-10.624-12.8-9.76-31.328 2.016-43.072l78.144-78.144-15.392-9.056a16.146 16.146 0 0 0-8.128-2.208h-58.112l8.416-16.832c3.968-7.904.736-17.504-7.168-21.472l-48-24c-7.872-3.936-17.472-.736-21.44 7.168l-96 192c-3.968 7.904-.736 17.504 7.168 21.472l48 24c2.272 1.152 4.704 1.664 7.136 1.664 5.888 0 11.52-3.264 14.336-8.832l5.44-10.848 124.064 91.744c14.176 10.464 31.072 15.68 47.936 15.68 17.152 0 34.24-5.408 48.416-16.192l55.68-42.752-75.712-62.72z"/><path d="M510.305 288.986l-96-192c-3.968-7.936-13.536-11.104-21.472-7.168l-48 24c-7.904 3.968-11.104 13.568-7.168 21.472l8.448 16.832h-42.08l-112.032 112 12.512 15.04c9.664 11.584 26.144 14.976 39.232 8.032l44.512-23.2 97.76 80.992 40.832-31.488 6.88 13.76a16.032 16.032 0 0 0 14.304 8.832c2.4 0 4.832-.544 7.168-1.696l48-24c7.872-3.904 11.04-13.504 7.104-21.408z"/></symbol><symbol id="icon-advantage4" viewBox="0 0 512 512" xmlns="http://www.w3.org/2000/svg"><path d="M509.728 327.776l-48-80A15.964 15.964 0 0 0 448 240h-96v-48c0-8.832-7.168-16-16-16h-81.632C246.304 247.808 185.92 304 112 304c-29.6 0-57.088-9.024-80-24.384V416c0 8.832 7.168 16 16 16h50.944c6.624 18.592 24.224 32 45.056 32 20.832 0 38.432-13.408 45.056-32h197.888c6.624 18.592 24.224 32 45.056 32 20.832 0 38.432-13.408 45.056-32H496c8.832 0 16-7.168 16-16v-80c0-2.912-.768-5.76-2.272-8.224zM144 432c-8.832 0-16-7.2-16-16s7.168-16 16-16 16 7.2 16 16-7.168 16-16 16zm288 0c-8.8 0-16-7.2-16-16s7.2-16 16-16 16 7.2 16 16-7.2 16-16 16zm-48-96v-64h54.944l38.4 64H384z"/><path d="M112 48C50.24 48 0 98.24 0 160s50.24 112 112 112 112-50.24 112-112S173.76 48 112 48zm43.328 155.328a16.07 16.07 0 0 1-22.656 0l-32-32A16.115 16.115 0 0 1 96 160v-48c0-8.832 7.168-16 16-16s16 7.168 16 16v41.376l27.328 27.328c6.24 6.24 6.24 16.384 0 22.624z"/></symbol><symbol id="icon-advantage5" viewBox="0 0 512 512" xmlns="http://www.w3.org/2000/svg"><path d="M509.728 295.808l-48-80.032C458.816 210.944 453.632 208 448 208h-80c-8.832 0-16 7.168-16 16v112H0v48c0 8.832 7.168 16 16 16h50.944c6.624 18.592 24.224 32 45.056 32 20.832 0 38.432-13.408 45.056-32h229.888c6.624 18.592 24.224 32 45.056 32 20.832 0 38.432-13.408 45.056-32H496c8.832 0 16-7.168 16-16v-80c-.768-2.784-1.504-5.408-2.272-8.192zM112 400c-8.832 0-16-7.2-16-16s7.168-16 16-16 16 7.2 16 16-7.168 16-16 16zm320 0c-8.8 0-16-7.2-16-16s7.2-16 16-16 16 7.2 16 16-7.2 16-16 16zm-48-96v-64h54.944l38.4 64H384z"/><path d="M304 80H48c-8.832 0-16 7.168-16 16v208h288V96c0-8.832-7.168-16-16-16zm-80 128l-48-42.656L128 208v-96h96v96z"/></symbol><symbol id="icon-advantage6" viewBox="0 0 512.035 512.035" xmlns="http://www.w3.org/2000/svg"><path d="M208.022 208.035h-16v32h16c8.832 0 16-7.168 16-16s-7.168-16-16-16z"/><path d="M488.502 256.035l22.464-58.592c2.464-6.464.544-13.792-4.864-18.176l-48.704-39.488-9.856-61.984c-1.088-6.848-6.464-12.192-13.312-13.28l-61.984-9.856L332.79 5.923c-4.352-5.408-11.84-7.328-18.144-4.864l-58.624 22.496L197.43 1.091c-6.496-2.496-13.76-.512-18.144 4.864l-39.488 48.736-61.984 9.856a16.033 16.033 0 0 0-13.28 13.28l-9.856 61.984-48.736 39.488c-5.376 4.352-7.328 11.68-4.864 18.144l22.464 58.592-22.464 58.592c-2.496 6.464-.512 13.792 4.864 18.144l48.736 39.456 9.856 61.984c1.088 6.848 6.432 12.224 13.28 13.312l61.984 9.856 39.488 48.704a15.923 15.923 0 0 0 18.176 4.864l58.56-22.432 58.592 22.464a16.066 16.066 0 0 0 5.728 1.056c4.704 0 9.344-2.08 12.448-5.952l39.456-48.704 61.984-9.856a16.03 16.03 0 0 0 13.312-13.312l9.856-61.984 48.704-39.456c5.408-4.384 7.328-11.68 4.864-18.144l-22.464-58.592zm-376.48-16c8.832 0 16 7.168 16 16s-7.168 16-16 16h-16v48c0 8.832-7.168 16-16 16s-16-7.168-16-16v-128c0-8.832 7.168-16 16-16h32c8.832 0 16 7.168 16 16s-7.168 16-16 16h-16v32h16zm110.208 29.6l30.592 40.8c5.312 7.072 3.872 17.088-3.2 22.4-2.88 2.144-6.24 3.2-9.568 3.2-4.864 0-9.664-2.208-12.8-6.4l-35.232-46.944v37.344c0 8.832-7.168 16-16 16s-16-7.168-16-16v-128c0-8.832 7.168-16 16-16h32c26.464 0 48 21.536 48 48 0 21.504-14.304 39.52-33.792 45.6zm113.792-29.6c8.832 0 16 7.168 16 16s-7.168 16-16 16h-16v32h16c8.832 0 16 7.168 16 16s-7.168 16-16 16h-32c-8.832 0-16-7.168-16-16v-128c0-8.832 7.168-16 16-16h32c8.832 0 16 7.168 16 16s-7.168 16-16 16h-16v32h16zm96 0c8.832 0 16 7.168 16 16s-7.168 16-16 16h-16v32h16c8.832 0 16 7.168 16 16s-7.168 16-16 16h-32c-8.832 0-16-7.168-16-16v-128c0-8.832 7.168-16 16-16h32c8.832 0 16 7.168 16 16s-7.168 16-16 16h-16v32h16z"/></symbol><symbol id="icon-advantage7" viewBox="0 0 512 512" xmlns="http://www.w3.org/2000/svg"><path d="M255.992 0c-97.056 0-176 78.944-176 176s78.944 176 176 176c97.024 0 176-78.944 176-176s-78.976-176-176-176zm92.512 151.104l-30.4 38.08 3.328 49.76a15.916 15.916 0 0 1-6.72 14.112 16.127 16.127 0 0 1-9.28 2.944c-2.112 0-4.256-.416-6.24-1.28l-43.2-18.336-43.168 18.336c-5.12 2.176-11.008 1.568-15.52-1.664a16.065 16.065 0 0 1-6.72-14.112l3.328-49.76-30.4-38.08c-3.392-4.224-4.384-9.888-2.688-15.04 1.696-5.152 5.888-9.056 11.136-10.432l45.376-11.872 24.896-41.92c5.76-9.728 21.76-9.728 27.488 0l24.896 41.92 45.408 11.872c5.216 1.376 9.408 5.312 11.136 10.432 1.728 5.12.704 10.784-2.656 15.04z"/><path d="M75.992 279.776L2.136 408c-3.232 5.632-2.752 12.64 1.184 17.76s10.56 7.424 16.832 5.696l93.952-25.248 24.992 93.952c1.664 6.24 6.944 10.88 13.344 11.744.704.064 1.44.096 2.112.096a16.002 16.002 0 0 0 13.856-8l69.856-120.896c-69.408-5.888-129.056-45.984-162.272-103.328zM509.88 408l-73.888-128.224c-33.184 57.344-92.864 97.44-162.272 103.328L343.576 504c2.88 4.992 8.192 8 13.856 8 .672 0 1.408-.032 2.08-.128 6.432-.864 11.68-5.504 13.376-11.744l24.992-93.952 93.952 25.248c6.272 1.728 12.864-.576 16.832-5.696 3.968-5.088 4.416-12.096 1.216-17.728z"/></symbol><symbol id="icon-advantage8" viewBox="0 0 488.5 488.5" xmlns="http://www.w3.org/2000/svg"><path d="M364.5 232.45c5.4 4.6 13.4 4.4 18.5-.7 4.9-4.9 5.3-12.5 1.2-17.8l-.2-.2c-.1-.2-.3-.4-.4-.5l-33.6-40c-1.4-1.7-2.3-3.8-2.4-6.1l-4.9-75.3c-.6-7-6.4-12.4-13.6-12.4-7 0-12.7 5.2-13.5 12v.1c0 .3 0 .6-.1.9l-5.4 82.7c-.1.5-.1 1.1-.1 1.6v.9c-.1 5 1.8 10 5.6 13.8.8.8 1.6 1.5 2.5 2.1l46.4 38.9z"/><path d="M330.3 16.45c-69.4 0-128.4 44.9-149.7 107.1 13.8 1.6 27.2 4.6 40.1 9.1 16.9-44.1 59.7-75.5 109.6-75.5 64.7 0 117.4 52.7 117.4 117.4 0 58.6-43.1 107.2-99.3 116 .9 7.6 1.4 15.4 1.4 23.2 0 6-.3 11.9-.8 17.8 78.4-9.3 139.5-76.1 139.5-157-.1-87.2-71-158.1-158.2-158.1z"/><path d="M303.1 290.45l-20.4-.1c-3.2-16.7-9.7-32.9-19.6-47.5l14.5-14.4c5.2-5.2 5.3-13.7.1-18.9l-14.6-14.6c-5.2-5.2-13.7-5.3-18.9-.1l-14.5 14.4c-14.6-10-30.7-16.6-47.4-19.9l.1-20.4c0-7.4-5.9-13.4-13.3-13.4l-20.6-.1c-7.4 0-13.4 5.9-13.4 13.3l-.1 20.3c-16.8 3.1-33.1 9.6-47.8 19.5L73 194.35c-5.2-5.2-13.7-5.3-18.9 0l-14.6 14.6c-5.2 5.2-5.3 13.7-.1 18.9l14 14.1c-10.1 14.6-16.8 31-20.1 47.8l-19.8-.1c-7.4 0-13.4 5.9-13.4 13.3l-.1 20.6c0 7.4 5.9 13.4 13.3 13.4l19.7.1c3.1 16.9 9.7 33.4 19.7 48.1l-13.9 13.8c-5.2 5.2-5.3 13.7-.1 18.9l14.6 14.6c5.2 5.2 13.7 5.3 18.9 0l14.1-13.6c14.7 10.1 31.1 16.8 48 20l-.1 19.7c0 7.4 5.9 13.4 13.3 13.4l20.6.1c7.4 0 13.4-5.9 13.4-13.3l.1-19.8c16.9-3.2 33.2-9.8 47.9-19.9l14 14.1c5.2 5.2 13.7 5.3 18.9.1l14.6-14.6c5.2-5.2 5.3-13.7.1-18.9l-14.2-14.2c10-14.6 16.6-30.9 19.7-47.7l20.3.1c7.4 0 13.4-5.9 13.4-13.3l.1-20.6c.1-7.6-5.9-13.6-13.3-13.6zm-96.2 72.1c-27 26.8-70.6 26.7-97.4-.3s-26.7-70.6.3-97.4 70.6-26.7 97.4.3c26.8 27 26.6 70.6-.3 97.4z"/></symbol><symbol id="icon-rezult1" viewBox="0 0 481.135 481.135" xmlns="http://www.w3.org/2000/svg"><path d="M285.248 354.109c-12.2-12.1-27.5-12.1-39.7 0-9.3 9.2-18.6 18.4-27.7 27.8-2.5 2.6-4.6 3.1-7.7 1.4-6-3.3-12.4-5.9-18.2-9.5-26.9-16.9-49.5-38.7-69.5-63.3-9.9-12.2-18.8-25.2-24.9-39.9-1.2-3-1.1-4.9 1.4-7.3 9.3-9 18.4-18.2 27.5-27.4 12.7-12.8 12.7-27.8-.1-40.7-7.2-7.3-14.5-14.6-21.8-21.8-7.5-7.5-14.9-15-22.5-22.5-12.3-12-27.5-12.1-39.8 0-9.3 9.2-18.4 18.7-27.8 27.7-8.8 8.4-13.3 18.6-14.2 30.6-1.4 19.4 3.3 37.8 10 55.7 13.8 37 34.7 69.8 60 100 34.2 40.8 75.2 73 123.1 96.3 21.5 10.5 43.9 18.5 68.2 19.8 16.7.9 31.3-3.3 42.9-16.3 8-8.9 16.9-17 25.4-25.5 12.5-12.6 12.6-27.9.2-40.4-15-15-29.9-29.8-44.8-44.7z"/><path d="M436.748 44.409c-59.2-59.2-155.1-59.2-214.3 0-57 57-59.1 148-6.4 207.5l1.5 1.3c-5.7 12.4-15.6 27.6-31.2 35.3-5.2 2.5-4 10.2 1.7 11.1 17.1 2.7 41.6-.3 64.4-17.6l.3.3c58.1 34.2 134 26.3 183.9-23.6 59.3-59.2 59.3-155.1.1-214.3zm-100.7 13.6c13.6.1 24.5 11.2 24.4 25-.1 13.7-11.2 24.8-24.5 24.7-13.8-.1-24.9-11.4-24.8-25.1s11.2-24.7 24.9-24.6zm35.1 166.5c-.5 2.1-1.9 4.3-3.4 5.9-9 9.1-19.7 14.5-32.6 14.7-6 .1-12.1-.1-18-1-9.9-1.4-22.4-13.6-20.6-26.7 1.2-8.9 2.6-17.8 4.1-26.7 2.6-15.4 5.4-30.9 8.1-46.3.2-1 .2-2 .2-3 0-6.5-2-8.7-8.4-9.6-2.7-.4-5.6-.6-8.1-1.5-3.2-1.1-4.6-3.6-4.3-6.2.3-2.7 2-4.4 5.5-5.1 1.8-.4 3.7-.4 5.6-.4h46.8c5.8 0 9.2 2.7 9.4 8.5.1 4.8-.7 9.6-1.6 14.4-3.1 17.6-6.4 35.2-9.6 52.9-1.1 5.8-2.3 11.7-2.9 17.5-.3 2.8.1 5.8.8 8.5.9 3.7 3.7 5.7 7.4 5.3 3.1-.4 6.2-1.5 9.2-2.6 2.4-.9 4.5-2.6 7-3.5 3.3-1.3 6.3 1.2 5.4 4.9z"/></symbol><symbol id="icon-rezult2" viewBox="0 0 512 512" xmlns="http://www.w3.org/2000/svg"><path d="M368 224c-79.392 0-144 64.608-144 144s64.608 144 144 144 144-64.608 144-144-64.608-144-144-144zm59.328 203.328a16.07 16.07 0 0 1-22.656 0l-48-48A16.115 16.115 0 0 1 352 368v-64c0-8.832 7.168-16 16-16s16 7.168 16 16v57.376l43.328 43.328c6.24 6.24 6.24 16.352 0 22.624zM204 304.608c-1.184-1.344-2.144-2.88-3.424-4.16L160 259.904l-40.576 40.576C104.32 315.552 96 335.616 96 357.024v27.008h96.8c-.48-5.28-.8-10.624-.8-16.032 0-22.368 4.352-43.68 12-63.392zM96 64v26.976c0 21.344 8.32 41.44 23.424 56.576L160 188.128l40.576-40.576C215.68 132.448 224 112.352 224 90.976V64H96z"/><path d="M304 0H16C7.168 0 0 7.2 0 16c0 8.864 7.168 16 16 16h16v58.976C32 129.44 46.976 165.6 74.176 192.8l31.2 31.2-31.2 31.2C46.976 282.432 32 318.56 32 357.024V416H16c-8.832 0-16 7.168-16 16s7.168 16 16 16l195.424-.032a173.31 173.31 0 0 1-12.608-32L64 416v-58.976c0-29.92 11.648-58.016 32.8-79.2l42.528-42.496A16.115 16.115 0 0 0 144 224c0-4.224-1.696-8.32-4.672-11.328L96.8 170.176c-21.152-21.152-32.8-49.28-32.8-79.2V32h192v58.976c0 29.92-11.648 58.016-32.8 79.2l-42.528 42.528C177.696 215.712 176 219.776 176 224c0 4.256 1.696 8.32 4.672 11.328l38.752 38.72a177.446 177.446 0 0 1 19.712-25.536L214.624 224l31.2-31.232C273.024 165.6 288 129.44 288 90.976V32h16c8.832 0 16-7.168 16-16s-7.168-16-16-16z"/></symbol><symbol id="icon-rezult3" viewBox="0 0 512 512" xmlns="http://www.w3.org/2000/svg"><path d="M336 32h-34.752C294.656 13.376 276.864 0 256 0s-38.656 13.376-45.28 32H176c-8.832 0-16 7.168-16 16v64c0 8.832 7.168 16 16 16h160c8.832 0 16-7.168 16-16V48c0-8.832-7.168-16-16-16z"/><path d="M416 64h-32v48c0 26.464-21.536 48-48 48H176c-26.464 0-48-21.536-48-48V64H96c-17.632 0-32 14.368-32 32v384c0 17.952 14.048 32 32 32h320c17.952 0 32-14.048 32-32V96c0-17.952-14.048-32-32-32zM251.328 347.328l-64 64a16.07 16.07 0 0 1-22.656 0l-32-32c-6.24-6.24-6.24-16.384 0-22.624s16.384-6.24 22.624 0L176 377.376l52.672-52.672c6.24-6.24 16.384-6.24 22.624 0s6.272 16.352.032 22.624zm0-128l-64 64a16.07 16.07 0 0 1-22.656 0l-32-32c-6.24-6.24-6.24-16.384 0-22.624s16.384-6.24 22.624 0L176 249.376l52.672-52.672c6.24-6.24 16.384-6.24 22.624 0 6.24 6.24 6.272 16.352.032 22.624zM368 384h-64c-8.832 0-16-7.168-16-16s7.168-16 16-16h64c8.832 0 16 7.168 16 16s-7.168 16-16 16zm0-128h-64c-8.832 0-16-7.168-16-16s7.168-16 16-16h64c8.832 0 16 7.168 16 16s-7.168 16-16 16z"/></symbol><symbol id="icon-rezult4" viewBox="0 0 486.982 486.982" xmlns="http://www.w3.org/2000/svg"><path d="M131.35 422.969c14.6 14.6 38.3 14.6 52.9 0l181.1-181.1c5.2-5.2 9.2-11.4 11.8-18 18.2 5.1 35.9 7.8 51.5 7.7 38.6-.2 51.4-17.1 55.6-27.2 4.2-10 7.2-31-19.9-58.6l-.9-.9c-16.8-16.8-41.2-32.3-68.9-43.8-5.1-2.1-10.2-4-15.2-5.8v-.3c-.3-22.2-18.2-40.1-40.4-40.4l-108.5-1.5c-14.4-.2-28.2 5.4-38.3 15.6l-181.2 181.1c-14.6 14.6-14.6 38.3 0 52.9l120.4 120.3zm139.6-305.1c12.1-12.1 31.7-12.1 43.8 0 7.2 7.2 10.1 17.1 8.7 26.4 11.9 8.4 26.1 16.2 41.3 22.5 5.4 2.2 10.6 4.2 15.6 5.9l-.6-43.6c.9.4 1.7.7 2.6 1.1 23.7 9.9 45 23.3 58.7 37l.6.6c13 13.3 14.4 21.8 13.3 24.4-3.4 8.1-39.9 15.3-95.3-7.8-16.2-6.8-31.4-15.2-43.7-24.3-.4.5-.9 1-1.3 1.5-12.1 12.1-31.7 12.1-43.8 0-12-12-12-31.6.1-43.7z"/></symbol><symbol id="icon-search" viewBox="0 0 15.97 16" xmlns="http://www.w3.org/2000/svg"><path d="M1507.6 334.763l-3.67-3.729a6.627 6.627 0 0 0 .98-3.481 6.456 6.456 0 1 0-6.45 6.554 6.38 6.38 0 0 0 3.69-1.175l3.63 3.685a1.273 1.273 0 0 0 1.82 0 1.315 1.315 0 0 0 0-1.854zm-9.14-2.78a4.43 4.43 0 1 1 4.36-4.43 4.4 4.4 0 0 1-4.36 4.43z" transform="translate(-1492 -321)"/></symbol><symbol id="icon-like" viewBox="0 0 18.03 15" xmlns="http://www.w3.org/2000/svg"><path d="M1382.02 1472s5.78-4.79 7.66-6.92a4.9 4.9 0 0 0 0-6.7 4.571 4.571 0 0 0-6.56 0l-1.1 1.12-.02-.02-.02.02-1.1-1.12a4.571 4.571 0 0 0-6.56 0 4.9 4.9 0 0 0 0 6.7c1.88 2.13 7.66 6.92 7.66 6.92" transform="translate(-1372.97 -1457)"/></symbol></defs></svg>