<svg viewBox="0 0 376.02424 60.37507" xmlns="http://www.w3.org/2000/svg"><path d="m24.38959 46.23639a11.05689 11.05689 0 0 1 -7.81259-3.23773l-.02579-.02582a11.06371 11.06371 0 0 1 0-15.6608l.00821.00818a11.05881 11.05881 0 0 1 7.83015-3.25583l.06915.0011h14.02868a4.01654 4.01654 0 1 1 0 8.03308h-14.09781l-.03716-.00055a3.03745 3.03745 0 0 0 -2.12172.87762l-.00822.00763.00822.00824a3.07365 3.07365 0 0 0 -.01588 4.31772l.01588.01563a3.03669 3.03669 0 0 0 2.15887.87817h7.02849a11.0735 11.0735 0 0 1 7.83015 18.91614l.00821.00824a11.05292 11.05292 0 0 1 -7.83836 3.24765h-20.33235a11.0574 11.0574 0 0 1 -7.81256-3.23776l-.02551-.02579a11.05627 11.05627 0 0 1 -3.24765-7.82251v-28.75631a4.016 4.016 0 0 1 2.00806-3.47869l23.62111-16.3451a4.00587 4.00587 0 0 1 4.61623.04645l23.82037 16.48265a3.99915 3.99915 0 0 1 1.72914 3.29471h.01276v35.82566a4.01656 4.01656 0 1 1 -8.03311 0v-33.73657l-19.87089-13.74972-19.87057 13.74972v26.6672a3.03646 3.03646 0 0 0 .8782 2.15884l.01556.01563a3.03718 3.03718 0 0 0 2.15886.87817h20.33236a3.0447 3.0447 0 0 0 2.15886-.8938l.00826.00827.00735-.00827a3.06047 3.06047 0 0 0 -2.17447-5.21149z" fill="#34a844"/><g fill="#fff"><path d="m80.6592 43.96921a18.31127 18.31127 0 0 1 -5.45371-2.21905l2.7806-5.98713a17.47058 17.47058 0 0 0 4.65107 2.00408 19.46884 19.46884 0 0 0 5.34622.77551q5.292 0 5.292-2.61987a1.8541 1.8541 0 0 0 -1.44254-1.764 21.48188 21.48188 0 0 0 -4.43811-.90912 42.606 42.606 0 0 1 -5.82741-1.22957 9.02526 9.02526 0 0 1 -3.982-2.45914 6.99024 6.99024 0 0 1 -1.68463-5.02477 7.8719 7.8719 0 0 1 1.57715-4.83893 10.15162 10.15162 0 0 1 4.59783-3.2879 19.64353 19.64353 0 0 1 7.13733-1.17582 28.043 28.043 0 0 1 6.06749.668 16.99981 16.99981 0 0 1 4.99865 1.84436l-2.77959 5.93439a16.60709 16.60709 0 0 0 -8.28655-2.13866 8.43277 8.43277 0 0 0 -4.01017.74889 2.20022 2.20022 0 0 0 -1.33605 1.92422 1.91042 1.91042 0 0 0 1.44354 1.87148 25.49923 25.49923 0 0 0 4.59783 1.0156 49.25917 49.25917 0 0 1 5.77316 1.25669 8.67734 8.67734 0 0 1 3.90268 2.432 6.90224 6.90224 0 0 1 1.65751 4.91829 7.59179 7.59179 0 0 1 -1.60427 4.75856 10.2413 10.2413 0 0 1 -4.67723 3.23468 20.86662 20.86662 0 0 1 -7.29807 1.14921 27.95008 27.95008 0 0 1 -7.00273-.882z"/><path d="m136.26046 32.39476h-21.7596a6.7744 6.7744 0 0 0 2.7806 4.22314 9.20507 9.20507 0 0 0 5.45271 1.55 11.03228 11.03228 0 0 0 3.983-.668 9.6553 9.6553 0 0 0 3.23466-2.11157l4.43711 4.8118q-4.06391 4.65007-11.86878 4.65107a18.76477 18.76477 0 0 1 -8.607-1.8986 13.894 13.894 0 0 1 -5.77416-5.26586 14.50789 14.50789 0 0 1 -2.0312-7.64464 14.696 14.696 0 0 1 2.00509-7.618 14.04333 14.04333 0 0 1 5.50595-5.293 17.04929 17.04929 0 0 1 15.47713-.07986 13.282 13.282 0 0 1 5.37335 5.21212 15.55524 15.55524 0 0 1 1.95084 7.88623q.00002.15972-.1597 2.24517zm-19.51346-9.2489a6.82435 6.82435 0 0 0 -2.35266 4.38386h14.16719a6.89346 6.89346 0 0 0 -2.35266-4.35724 7.03218 7.03218 0 0 0 -4.70432-1.63089 7.17912 7.17912 0 0 0 -4.75755 1.60427z"/><path d="m165.58465 17.07786a13.24907 13.24907 0 0 1 5.15837 5.1855 15.65634 15.65634 0 0 1 1.87148 7.77875 15.64771 15.64771 0 0 1 -1.87148 7.77824 13.24177 13.24177 0 0 1 -5.15837 5.1865 14.66014 14.66014 0 0 1 -7.29807 1.84436 11.10756 11.10756 0 0 1 -8.66024-3.47474v13.4178h-8.33979v-39.13333h7.96509v3.31452q3.10105-3.74145 9.03494-3.742a14.66014 14.66014 0 0 1 7.29807 1.8444zm-2.93192 18.76453a8.07411 8.07411 0 0 0 2.05833-5.80028 8.07575 8.07575 0 0 0 -2.05833-5.80028 7.48695 7.48695 0 0 0 -10.53273 0 8.07088 8.07088 0 0 0 -2.05732 5.80028 8.06924 8.06924 0 0 0 2.05732 5.80028 7.48571 7.48571 0 0 0 10.53273 0z"/><path d="m199.45344 43.033a8.56035 8.56035 0 0 1 -3.02069 1.36318 15.30651 15.30651 0 0 1 -3.76908.45506q-5.13226 0-7.939-2.61987-2.80722-2.61887-2.80672-7.69889v-11.81456h-4.43711v-6.41507h4.43716v-7.00374h8.33979v7.00374h7.16346v6.41507h-7.16346v11.70808a3.924 3.924 0 0 0 .93524 2.80672 3.46614 3.46614 0 0 0 2.647.98948 5.36091 5.36091 0 0 0 3.36826-1.06985z"/><path d="m205.76335 10.31471a4.33256 4.33256 0 0 1 -1.44355-3.31451 4.33632 4.33632 0 0 1 1.44354-3.31452 5.28877 5.28877 0 0 1 3.742-1.33656 5.4228 5.4228 0 0 1 3.742 1.28331 4.11388 4.11388 0 0 1 1.44346 3.20757 4.53924 4.53924 0 0 1 -1.44354 3.44812 5.22751 5.22751 0 0 1 -3.742 1.36318 5.2843 5.2843 0 0 1 -3.74191-1.33659zm-.42794 5.34622h8.33979v28.76234h-8.33979z"/><path d="m231.90612 33.14316-4.00912 3.95592v7.32419h-8.33979v-39.66827h8.33979v22.45326l12.18923-11.54732h9.94406l-11.97529 12.18923 13.04411 16.5731h-10.1038z"/><path d="m286.13612 4.755v39.66827h-7.96612v-3.315q-3.10105 3.743-8.9817 3.743a14.92718 14.92718 0 0 1 -7.3503-1.81827 13.0094 13.0094 0 0 1 -5.15938-5.1855 15.80416 15.80416 0 0 1 -1.87148-7.80537 15.80686 15.80686 0 0 1 1.87148-7.80537 13.01891 13.01891 0 0 1 5.15938-5.1855 14.93768 14.93768 0 0 1 7.35031-1.81774 10.945 10.945 0 0 1 8.608 3.47474v-13.95326zm-10.26451 31.08739a8.01148 8.01148 0 0 0 2.08445-5.80028 8.01311 8.01311 0 0 0 -2.08445-5.80028 7.48562 7.48562 0 0 0 -10.53172 0 8.00944 8.00944 0 0 0 -2.08545 5.80028 8.00782 8.00782 0 0 0 2.08545 5.80028 7.48438 7.48438 0 0 0 10.53172 0z"/><path d="m298.67426 42.9526a14.09119 14.09119 0 0 1 -5.64056-5.26586 14.50789 14.50789 0 0 1 -2.0312-7.64464 14.5104 14.5104 0 0 1 2.0312-7.64464 14.10968 14.10968 0 0 1 5.64056-5.26636 18.40491 18.40491 0 0 1 16.27876 0 14.161 14.161 0 0 1 5.61344 5.26636 14.5104 14.5104 0 0 1 2.0312 7.64464 14.50789 14.50789 0 0 1 -2.0312 7.64464 14.14226 14.14226 0 0 1 -5.61346 5.26586 18.39617 18.39617 0 0 1 -16.27876 0zm12.74155-7.11022a8.07411 8.07411 0 0 0 2.05833-5.80028 8.07575 8.07575 0 0 0 -2.05833-5.80028 6.9457 6.9457 0 0 0 -5.26586-2.16531 7.033 7.033 0 0 0 -5.293 2.16531 8.00888 8.00888 0 0 0 -2.08445 5.80028 8.00725 8.00725 0 0 0 2.08445 5.80028 7.03343 7.03343 0 0 0 5.293 2.16581 6.9461 6.9461 0 0 0 5.26585-2.1658z"/><path d="m372.84283 17.63356q3.18091 3.18091 3.18142 9.54324v16.46561h-8.33979v-15.18279a7.79728 7.79728 0 0 0 -1.41742-5.10614 4.983 4.983 0 0 0 -4.03629-1.68363 5.95083 5.95083 0 0 0 -4.65107 1.8976 8.17982 8.17982 0 0 0 -1.71075 5.64056v14.4344h-8.33979v-15.18279q0-6.78977-5.45271-6.78977a5.88654 5.88654 0 0 0 -4.59783 1.8976 8.17982 8.17982 0 0 0 -1.71075 5.64056v14.4344h-8.33985v-28.76232h7.96509v3.31452a10.5426 10.5426 0 0 1 3.92981-2.77959 13.21513 13.21513 0 0 1 5.10513-.96236 12.36233 12.36233 0 0 1 5.507 1.203 9.76308 9.76308 0 0 1 3.95597 3.50134 11.8032 11.8032 0 0 1 4.46423-3.47474 14.082 14.082 0 0 1 5.90777-1.22957 11.59585 11.59585 0 0 1 8.57983 3.18087z"/></g></svg>