<svg style="position: absolute; width: 0; height: 0;" width="0" height="0" version="1.1" xmlns="http://www.w3.org/2000/svg" xmlns:xlink="http://www.w3.org/1999/xlink">
	<defs>
		<symbol id="icon-check" viewBox="0 0 26 26" xmlns="http://www.w3.org/2000/svg">
			<path d="M.3 14c-.2-.2-.3-.5-.3-.7s.1-.5.3-.7l1.4-1.4c.4-.4 1-.4 1.4 0l.1.1 5.5 5.9c.2.2.5.2.7 0L22.8 3.3h.1c.4-.4 1-.4 1.4 0l1.4 1.4c.4.4.4 1 0 1.4l-16 16.6c-.2.2-.4.3-.7.3-.3 0-.5-.1-.7-.3L.5 14.3.3 14z"/>
		</symbol>
		<symbol id="icon-arrow" viewBox="0 0 408 408" xmlns="http://www.w3.org/2000/svg">
 			<path d="M408 178.5H96.9L239.7 35.7 204 0 0 204l204 204 35.7-35.7L96.9 229.5H408v-51z"/>
 		</symbol>
		<symbol id="icon-arrow-two" viewBox="0 0 306 306" xmlns="http://www.w3.org/2000/svg">
			<path d="M94.35 0l-35.7 35.7L175.95 153 58.65 270.3l35.7 35.7 153-153z"/>
		</symbol>
		<symbol id="icon-play" viewBox="0 0 232.153 232.153" xmlns="http://www.w3.org/2000/svg">
			<path d="M203.791 99.628L49.307 2.294C44.74-.425 39.069.028 34.786.028 17.654.028 17.73 13.255 17.73 16.606v198.94c0 2.833-.075 16.579 17.056 16.579 4.283 0 9.955.451 14.521-2.267l154.483-97.333c12.68-7.545 10.489-16.449 10.489-16.449s2.192-8.904-10.488-16.448z" fill-rule="evenodd" clip-rule="evenodd"/>
		</symbol>
		<symbol id="icon-menu" viewBox="0 0 396.667 396.667" xmlns="http://www.w3.org/2000/svg">
			<path d="M17 87.833h362.667c9.35 0 17-7.65 17-17s-7.65-17-17-17H17c-9.35 0-17 7.65-17 17s7.65 17 17 17zM17 215.333h362.667c9.35 0 17-7.65 17-17s-7.65-17-17-17H17c-9.35 0-17 7.65-17 17s7.65 17 17 17zM17 342.833h362.667c9.35 0 17-7.65 17-17s-7.65-17-17-17H17c-9.35 0-17 7.65-17 17s7.65 17 17 17z"/>
		</symbol>
		<symbol id="icon-cross" viewBox="0 0 47.971 47.971" xmlns="http://www.w3.org/2000/svg">
			<path d="M28.228 23.986L47.092 5.122a2.998 2.998 0 0 0 0-4.242 2.998 2.998 0 0 0-4.242 0L23.986 19.744 5.121.88a2.998 2.998 0 0 0-4.242 0 2.998 2.998 0 0 0 0 4.242l18.865 18.864L.879 42.85a2.998 2.998 0 1 0 4.242 4.241l18.865-18.864L42.85 47.091c.586.586 1.354.879 2.121.879s1.535-.293 2.121-.879a2.998 2.998 0 0 0 0-4.242L28.228 23.986z"/>
		</symbol>
		<symbol id="icon-subscr" viewBox="0 0 486.982 486.982" xmlns="http://www.w3.org/2000/svg">
 			<path d="M131.35 422.969c14.6 14.6 38.3 14.6 52.9 0l181.1-181.1c5.2-5.2 9.2-11.4 11.8-18 18.2 5.1 35.9 7.8 51.5 7.7 38.6-.2 51.4-17.1 55.6-27.2 4.2-10 7.2-31-19.9-58.6l-.9-.9c-16.8-16.8-41.2-32.3-68.9-43.8-5.1-2.1-10.2-4-15.2-5.8v-.3c-.3-22.2-18.2-40.1-40.4-40.4l-108.5-1.5c-14.4-.2-28.2 5.4-38.3 15.6l-181.2 181.1c-14.6 14.6-14.6 38.3 0 52.9l120.4 120.3zm139.6-305.1c12.1-12.1 31.7-12.1 43.8 0 7.2 7.2 10.1 17.1 8.7 26.4 11.9 8.4 26.1 16.2 41.3 22.5 5.4 2.2 10.6 4.2 15.6 5.9l-.6-43.6c.9.4 1.7.7 2.6 1.1 23.7 9.9 45 23.3 58.7 37l.6.6c13 13.3 14.4 21.8 13.3 24.4-3.4 8.1-39.9 15.3-95.3-7.8-16.2-6.8-31.4-15.2-43.7-24.3-.4.5-.9 1-1.3 1.5-12.1 12.1-31.7 12.1-43.8 0-12-12-12-31.6.1-43.7z"/>
 		</symbol>
		<symbol id="icon-instagram" viewBox="0 0 49.652 49.652" xmlns="http://www.w3.org/2000/svg">
 			<path d="M24.825 29.796a4.978 4.978 0 0 0 4.972-4.97 4.954 4.954 0 0 0-.94-2.897 4.964 4.964 0 0 0-4.029-2.073c-1.659 0-3.126.82-4.031 2.072a4.947 4.947 0 0 0-.94 2.897 4.973 4.973 0 0 0 4.968 4.971zM35.678 18.746V13.96l-.623.002-4.164.013.016 4.787z"/>
 			<path d="M24.826 0C11.137 0 0 11.137 0 24.826c0 13.688 11.137 24.826 24.826 24.826 13.688 0 24.826-11.138 24.826-24.826C49.652 11.137 38.516 0 24.826 0zm14.119 21.929v11.56a5.463 5.463 0 0 1-5.457 5.458H16.164a5.462 5.462 0 0 1-5.457-5.458V16.165a5.462 5.462 0 0 1 5.457-5.457h17.323a5.463 5.463 0 0 1 5.458 5.457v5.764z"/>
 			<path d="M32.549 24.826c0 4.257-3.464 7.723-7.723 7.723s-7.722-3.466-7.722-7.723a7.67 7.67 0 0 1 .568-2.897h-4.215v11.56a2.706 2.706 0 0 0 2.706 2.704h17.323a2.707 2.707 0 0 0 2.706-2.704v-11.56h-4.217c.367.894.574 1.873.574 2.897z"/>
 		</symbol>
		<symbol id="icon-facebook" viewBox="0 0 49.652 49.652" xmlns="http://www.w3.org/2000/svg">
			<path d="M24.826 0C11.137 0 0 11.137 0 24.826c0 13.688 11.137 24.826 24.826 24.826 13.688 0 24.826-11.138 24.826-24.826C49.652 11.137 38.516 0 24.826 0zM31 25.7h-4.039v14.396h-5.985V25.7h-2.845v-5.088h2.845v-3.291c0-2.357 1.12-6.04 6.04-6.04l4.435.017v4.939h-3.219c-.524 0-1.269.262-1.269 1.386v2.99h4.56L31 25.7z"/>
		</symbol>
		<symbol id="icon-vk" viewBox="0 0 97.75 97.75" xmlns="http://www.w3.org/2000/svg">
			<path d="M48.875 0C21.883 0 0 21.882 0 48.875S21.883 97.75 48.875 97.75 97.75 75.868 97.75 48.875 75.867 0 48.875 0zm24.792 54.161c2.278 2.225 4.688 4.319 6.733 6.774.906 1.086 1.76 2.209 2.41 3.472.928 1.801.09 3.776-1.522 3.883l-10.013-.002c-2.586.214-4.644-.829-6.379-2.597-1.385-1.409-2.67-2.914-4.004-4.371-.545-.598-1.119-1.161-1.803-1.604-1.365-.888-2.551-.616-3.333.81-.797 1.451-.979 3.059-1.055 4.674-.109 2.361-.821 2.978-3.19 3.089-5.062.237-9.865-.531-14.329-3.083-3.938-2.251-6.986-5.428-9.642-9.025-5.172-7.012-9.133-14.708-12.692-22.625-.801-1.783-.215-2.737 1.752-2.774 3.268-.063 6.536-.055 9.804-.003 1.33.021 2.21.782 2.721 2.037 1.766 4.345 3.931 8.479 6.644 12.313.723 1.021 1.461 2.039 2.512 2.76 1.16.796 2.044.533 2.591-.762.35-.823.501-1.703.577-2.585.26-3.021.291-6.041-.159-9.05-.28-1.883-1.339-3.099-3.216-3.455-.956-.181-.816-.535-.351-1.081.807-.944 1.563-1.528 3.074-1.528l11.313-.002c1.783.35 2.183 1.15 2.425 2.946l.01 12.572c-.021.695.349 2.755 1.597 3.21 1 .33 1.66-.472 2.258-1.105 2.713-2.879 4.646-6.277 6.377-9.794.764-1.551 1.423-3.156 2.063-4.764.476-1.189 1.216-1.774 2.558-1.754l10.894.013c.321 0 .647.003.965.058 1.836.314 2.339 1.104 1.771 2.895-.894 2.814-2.631 5.158-4.329 7.508-1.82 2.516-3.761 4.944-5.563 7.471-1.656 2.31-1.525 3.473.531 5.479z"/>
		</symbol>
		<symbol id="icon-checkbox" viewBox="0 0 512 512" xmlns="http://www.w3.org/2000/svg">
			<path d="M504.502 75.496c-9.997-9.998-26.205-9.998-36.204 0L161.594 382.203 43.702 264.311c-9.997-9.998-26.205-9.997-36.204 0-9.998 9.997-9.998 26.205 0 36.203l135.994 135.992c9.994 9.997 26.214 9.99 36.204 0L504.502 111.7c9.998-9.997 9.997-26.206 0-36.204z"/>
		</symbol>
		<symbol id="icon-advantage2" viewBox="0 0 512 512" xmlns="http://www.w3.org/2000/svg">
			<path d="M224 159.992v-32H32c-17.632 0-32 14.368-32 32v64h230.752c-4.448-19.552-6.752-40.608-6.752-64zM510.688 287.992c-21.824 33.632-55.104 62.24-102.784 89.632-7.328 4.192-15.584 6.368-23.904 6.368s-16.576-2.176-23.808-6.304c-47.68-27.456-80.96-56.096-102.816-89.696H0v160c0 17.664 14.368 32 32 32h448c17.664 0 32-14.336 32-32v-160h-1.312zm-366.688 96H80c-8.832 0-16-7.168-16-16s7.168-16 16-16h64c8.832 0 16 7.168 16 16s-7.168 16-16 16z"/>
			<path d="M502.304 81.304l-112-48a16.058 16.058 0 0 0-12.64 0l-112 48C259.808 83.8 256 89.592 256 95.992v64c0 88.032 32.544 139.488 120.032 189.888 2.464 1.408 5.216 2.112 7.968 2.112s5.504-.704 7.968-2.112C479.456 299.608 512 248.152 512 159.992v-64c0-6.4-3.808-12.192-9.696-14.688zm-57.792 72.704l-64 80c-3.072 3.776-7.68 5.984-12.512 5.984h-.672a16.058 16.058 0 0 1-12.64-7.104l-32-48c-4.896-7.36-2.912-17.28 4.448-22.176 7.296-4.864 17.248-2.944 22.176 4.448l19.872 29.792 50.304-62.912c5.536-6.88 15.616-7.968 22.496-2.496 6.912 5.472 8 15.552 2.528 22.464z"/>
		</symbol>
		 <symbol id="icon-advantage3" viewBox="0 0 511.996 511.996" xmlns="http://www.w3.org/2000/svg">
			<path d="M284.161 302.202l-25.504 13.312c-26.208 13.984-59.392 7.328-78.752-15.872l-12.544-15.04c-10.624-12.8-9.76-31.328 2.016-43.072l78.144-78.144-15.392-9.056a16.146 16.146 0 0 0-8.128-2.208h-58.112l8.416-16.832c3.968-7.904.736-17.504-7.168-21.472l-48-24c-7.872-3.936-17.472-.736-21.44 7.168l-96 192c-3.968 7.904-.736 17.504 7.168 21.472l48 24c2.272 1.152 4.704 1.664 7.136 1.664 5.888 0 11.52-3.264 14.336-8.832l5.44-10.848 124.064 91.744c14.176 10.464 31.072 15.68 47.936 15.68 17.152 0 34.24-5.408 48.416-16.192l55.68-42.752-75.712-62.72z"/>
			<path d="M510.305 288.986l-96-192c-3.968-7.936-13.536-11.104-21.472-7.168l-48 24c-7.904 3.968-11.104 13.568-7.168 21.472l8.448 16.832h-42.08l-112.032 112 12.512 15.04c9.664 11.584 26.144 14.976 39.232 8.032l44.512-23.2 97.76 80.992 40.832-31.488 6.88 13.76a16.032 16.032 0 0 0 14.304 8.832c2.4 0 4.832-.544 7.168-1.696l48-24c7.872-3.904 11.04-13.504 7.104-21.408z"/>
		</symbol>
		<symbol id="icon-advantage4" viewBox="0 0 512 512" xmlns="http://www.w3.org/2000/svg">
			<path d="M509.728 327.776l-48-80A15.964 15.964 0 0 0 448 240h-96v-48c0-8.832-7.168-16-16-16h-81.632C246.304 247.808 185.92 304 112 304c-29.6 0-57.088-9.024-80-24.384V416c0 8.832 7.168 16 16 16h50.944c6.624 18.592 24.224 32 45.056 32 20.832 0 38.432-13.408 45.056-32H386.944c6.624 18.592 24.224 32 45.056 32 20.832 0 38.432-13.408 45.056-32H496c8.832 0 16-7.168 16-16v-80c0-2.912-.768-5.76-2.272-8.224zM144 432c-8.832 0-16-7.2-16-16s7.168-16 16-16 16 7.2 16 16-7.168 16-16 16zm288 0c-8.8 0-16-7.2-16-16s7.2-16 16-16 16 7.2 16 16-7.2 16-16 16zm-48-96v-64h54.944l38.4 64H384z"/>
			<path d="M112 48C50.24 48 0 98.24 0 160s50.24 112 112 112 112-50.24 112-112S173.76 48 112 48zm43.328 155.328a16.07 16.07 0 0 1-22.656 0l-32-32A16.115 16.115 0 0 1 96 160v-48c0-8.832 7.168-16 16-16s16 7.168 16 16v41.376l27.328 27.328c6.24 6.24 6.24 16.384 0 22.624z"/>
		</symbol>
		<symbol id="icon-advantage5" viewBox="0 0 512 512" xmlns="http://www.w3.org/2000/svg">
			<path d="M509.728 295.808l-48-80.032C458.816 210.944 453.632 208 448 208h-80c-8.832 0-16 7.168-16 16v112H0v48c0 8.832 7.168 16 16 16h50.944c6.624 18.592 24.224 32 45.056 32 20.832 0 38.432-13.408 45.056-32H386.944c6.624 18.592 24.224 32 45.056 32 20.832 0 38.432-13.408 45.056-32H496c8.832 0 16-7.168 16-16v-80c-.768-2.784-1.504-5.408-2.272-8.192zM112 400c-8.832 0-16-7.2-16-16s7.168-16 16-16 16 7.2 16 16-7.168 16-16 16zm320 0c-8.8 0-16-7.2-16-16s7.2-16 16-16 16 7.2 16 16-7.2 16-16 16zm-48-96v-64h54.944l38.4 64H384z"/>
			<path d="M304 80H48c-8.832 0-16 7.168-16 16v208h288V96c0-8.832-7.168-16-16-16zm-80 128l-48-42.656L128 208v-96h96v96z"/>
		</symbol>
		<symbol id="icon-advantage6" viewBox="0 0 512.035 512.035" xmlns="http://www.w3.org/2000/svg">
			<path d="M208.022 208.035h-16v32h16c8.832 0 16-7.168 16-16s-7.168-16-16-16z"/>
			<path d="M488.502 256.035l22.464-58.592c2.464-6.464.544-13.792-4.864-18.176l-48.704-39.488-9.856-61.984c-1.088-6.848-6.464-12.192-13.312-13.28l-61.984-9.856L332.79 5.923c-4.352-5.408-11.84-7.328-18.144-4.864l-58.624 22.496L197.43 1.091c-6.496-2.496-13.76-.512-18.144 4.864l-39.488 48.736-61.984 9.856a16.033 16.033 0 0 0-13.28 13.28l-9.856 61.984-48.736 39.488c-5.376 4.352-7.328 11.68-4.864 18.144l22.464 58.592-22.464 58.592c-2.496 6.464-.512 13.792 4.864 18.144l48.736 39.456 9.856 61.984c1.088 6.848 6.432 12.224 13.28 13.312l61.984 9.856 39.488 48.704a15.923 15.923 0 0 0 18.176 4.864l58.56-22.432 58.592 22.464a16.066 16.066 0 0 0 5.728 1.056c4.704 0 9.344-2.08 12.448-5.952l39.456-48.704 61.984-9.856a16.03 16.03 0 0 0 13.312-13.312l9.856-61.984 48.704-39.456c5.408-4.384 7.328-11.68 4.864-18.144l-22.464-58.592zm-376.48-16c8.832 0 16 7.168 16 16s-7.168 16-16 16h-16v48c0 8.832-7.168 16-16 16s-16-7.168-16-16v-128c0-8.832 7.168-16 16-16h32c8.832 0 16 7.168 16 16s-7.168 16-16 16h-16v32h16zm110.208 29.6l30.592 40.8c5.312 7.072 3.872 17.088-3.2 22.4-2.88 2.144-6.24 3.2-9.568 3.2-4.864 0-9.664-2.208-12.8-6.4l-35.232-46.944v37.344c0 8.832-7.168 16-16 16s-16-7.168-16-16v-128c0-8.832 7.168-16 16-16h32c26.464 0 48 21.536 48 48 0 21.504-14.304 39.52-33.792 45.6zm113.792-29.6c8.832 0 16 7.168 16 16s-7.168 16-16 16h-16v32h16c8.832 0 16 7.168 16 16s-7.168 16-16 16h-32c-8.832 0-16-7.168-16-16v-128c0-8.832 7.168-16 16-16h32c8.832 0 16 7.168 16 16s-7.168 16-16 16h-16v32h16zm96 0c8.832 0 16 7.168 16 16s-7.168 16-16 16h-16v32h16c8.832 0 16 7.168 16 16s-7.168 16-16 16h-32c-8.832 0-16-7.168-16-16v-128c0-8.832 7.168-16 16-16h32c8.832 0 16 7.168 16 16s-7.168 16-16 16h-16v32h16z"/>
		</symbol>
		<symbol id="icon-advantage7" viewBox="0 0 512 512" xmlns="http://www.w3.org/2000/svg">
			<path d="M255.992 0c-97.056 0-176 78.944-176 176s78.944 176 176 176c97.024 0 176-78.944 176-176s-78.976-176-176-176zm92.512 151.104l-30.4 38.08 3.328 49.76a15.916 15.916 0 0 1-6.72 14.112 16.127 16.127 0 0 1-9.28 2.944c-2.112 0-4.256-.416-6.24-1.28l-43.2-18.336-43.168 18.336c-5.12 2.176-11.008 1.568-15.52-1.664a16.065 16.065 0 0 1-6.72-14.112l3.328-49.76-30.4-38.08c-3.392-4.224-4.384-9.888-2.688-15.04 1.696-5.152 5.888-9.056 11.136-10.432l45.376-11.872 24.896-41.92c5.76-9.728 21.76-9.728 27.488 0l24.896 41.92 45.408 11.872c5.216 1.376 9.408 5.312 11.136 10.432 1.728 5.12.704 10.784-2.656 15.04z"/>
			<path d="M75.992 279.776L2.136 408c-3.232 5.632-2.752 12.64 1.184 17.76s10.56 7.424 16.832 5.696l93.952-25.248 24.992 93.952c1.664 6.24 6.944 10.88 13.344 11.744.704.064 1.44.096 2.112.096a16.002 16.002 0 0 0 13.856-8l69.856-120.896c-69.408-5.888-129.056-45.984-162.272-103.328zM509.88 408l-73.888-128.224c-33.184 57.344-92.864 97.44-162.272 103.328L343.576 504c2.88 4.992 8.192 8 13.856 8 .672 0 1.408-.032 2.08-.128 6.432-.864 11.68-5.504 13.376-11.744l24.992-93.952 93.952 25.248c6.272 1.728 12.864-.576 16.832-5.696 3.968-5.088 4.416-12.096 1.216-17.728z"/>
		</symbol>
		<symbol id="icon-advantage8" viewBox="0 0 488.5 488.5" xmlns="http://www.w3.org/2000/svg">
			<path d="M364.5 232.45c5.4 4.6 13.4 4.4 18.5-.7 4.9-4.9 5.3-12.5 1.2-17.8l-.2-.2c-.1-.2-.3-.4-.4-.5l-33.6-40c-1.4-1.7-2.3-3.8-2.4-6.1l-4.9-75.3c-.6-7-6.4-12.4-13.6-12.4-7 0-12.7 5.2-13.5 12v.1c0 .3 0 .6-.1.9l-5.4 82.7c-.1.5-.1 1.1-.1 1.6v.9c-.1 5 1.8 10 5.6 13.8.8.8 1.6 1.5 2.5 2.1l46.4 38.9z"/>
			<path d="M330.3 16.45c-69.4 0-128.4 44.9-149.7 107.1 13.8 1.6 27.2 4.6 40.1 9.1 16.9-44.1 59.7-75.5 109.6-75.5 64.7 0 117.4 52.7 117.4 117.4 0 58.6-43.1 107.2-99.3 116 .9 7.6 1.4 15.4 1.4 23.2 0 6-.3 11.9-.8 17.8 78.4-9.3 139.5-76.1 139.5-157-.1-87.2-71-158.1-158.2-158.1z"/>
			<path d="M303.1 290.45l-20.4-.1c-3.2-16.7-9.7-32.9-19.6-47.5l14.5-14.4c5.2-5.2 5.3-13.7.1-18.9l-14.6-14.6c-5.2-5.2-13.7-5.3-18.9-.1l-14.5 14.4c-14.6-10-30.7-16.6-47.4-19.9l.1-20.4c0-7.4-5.9-13.4-13.3-13.4l-20.6-.1c-7.4 0-13.4 5.9-13.4 13.3l-.1 20.3c-16.8 3.1-33.1 9.6-47.8 19.5L73 194.35c-5.2-5.2-13.7-5.3-18.9 0l-14.6 14.6c-5.2 5.2-5.3 13.7-.1 18.9l14 14.1c-10.1 14.6-16.8 31-20.1 47.8l-19.8-.1c-7.4 0-13.4 5.9-13.4 13.3l-.1 20.6c0 7.4 5.9 13.4 13.3 13.4l19.7.1c3.1 16.9 9.7 33.4 19.7 48.1l-13.9 13.8c-5.2 5.2-5.3 13.7-.1 18.9l14.6 14.6c5.2 5.2 13.7 5.3 18.9 0l14.1-13.6c14.7 10.1 31.1 16.8 48 20l-.1 19.7c0 7.4 5.9 13.4 13.3 13.4l20.6.1c7.4 0 13.4-5.9 13.4-13.3l.1-19.8c16.9-3.2 33.2-9.8 47.9-19.9l14 14.1c5.2 5.2 13.7 5.3 18.9.1l14.6-14.6c5.2-5.2 5.3-13.7.1-18.9l-14.2-14.2c10-14.6 16.6-30.9 19.7-47.7l20.3.1c7.4 0 13.4-5.9 13.4-13.3l.1-20.6c.1-7.6-5.9-13.6-13.3-13.6zm-96.2 72.1c-27 26.8-70.6 26.7-97.4-.3s-26.7-70.6.3-97.4 70.6-26.7 97.4.3c26.8 27 26.6 70.6-.3 97.4z"/>
		</symbol>
		<symbol id="icon-rezult1" viewBox="0 0 481.135 481.135" xmlns="http://www.w3.org/2000/svg">
			<path d="M285.248 354.109c-12.2-12.1-27.5-12.1-39.7 0-9.3 9.2-18.6 18.4-27.7 27.8-2.5 2.6-4.6 3.1-7.7 1.4-6-3.3-12.4-5.9-18.2-9.5-26.9-16.9-49.5-38.7-69.5-63.3-9.9-12.2-18.8-25.2-24.9-39.9-1.2-3-1.1-4.9 1.4-7.3 9.3-9 18.4-18.2 27.5-27.4 12.7-12.8 12.7-27.8-.1-40.7-7.2-7.3-14.5-14.6-21.8-21.8-7.5-7.5-14.9-15-22.5-22.5-12.3-12-27.5-12.1-39.8 0-9.3 9.2-18.4 18.7-27.8 27.7-8.8 8.4-13.3 18.6-14.2 30.6-1.4 19.4 3.3 37.8 10 55.7 13.8 37 34.7 69.8 60 100 34.2 40.8 75.2 73 123.1 96.3 21.5 10.5 43.9 18.5 68.2 19.8 16.7.9 31.3-3.3 42.9-16.3 8-8.9 16.9-17 25.4-25.5 12.5-12.6 12.6-27.9.2-40.4-15-15-29.9-29.8-44.8-44.7z"/>
			<path d="M436.748 44.409c-59.2-59.2-155.1-59.2-214.3 0-57 57-59.1 148-6.4 207.5l1.5 1.3c-5.7 12.4-15.6 27.6-31.2 35.3-5.2 2.5-4 10.2 1.7 11.1 17.1 2.7 41.6-.3 64.4-17.6l.3.3c58.1 34.2 134 26.3 183.9-23.6 59.3-59.2 59.3-155.1.1-214.3zm-100.7 13.6c13.6.1 24.5 11.2 24.4 25-.1 13.7-11.2 24.8-24.5 24.7-13.8-.1-24.9-11.4-24.8-25.1s11.2-24.7 24.9-24.6zm35.1 166.5c-.5 2.1-1.9 4.3-3.4 5.9-9 9.1-19.7 14.5-32.6 14.7-6 .1-12.1-.1-18-1-9.9-1.4-22.4-13.6-20.6-26.7 1.2-8.9 2.6-17.8 4.1-26.7 2.6-15.4 5.4-30.9 8.1-46.3.2-1 .2-2 .2-3 0-6.5-2-8.7-8.4-9.6-2.7-.4-5.6-.6-8.1-1.5-3.2-1.1-4.6-3.6-4.3-6.2.3-2.7 2-4.4 5.5-5.1 1.8-.4 3.7-.4 5.6-.4h46.8c5.8 0 9.2 2.7 9.4 8.5.1 4.8-.7 9.6-1.6 14.4-3.1 17.6-6.4 35.2-9.6 52.9-1.1 5.8-2.3 11.7-2.9 17.5-.3 2.8.1 5.8.8 8.5.9 3.7 3.7 5.7 7.4 5.3 3.1-.4 6.2-1.5 9.2-2.6 2.4-.9 4.5-2.6 7-3.5 3.3-1.3 6.3 1.2 5.4 4.9z"/>
		</symbol>
		<symbol id="icon-rezult2" viewBox="0 0 512 512" xmlns="http://www.w3.org/2000/svg">
	 		<path d="M368 224c-79.392 0-144 64.608-144 144s64.608 144 144 144 144-64.608 144-144-64.608-144-144-144zm59.328 203.328a16.07 16.07 0 0 1-22.656 0l-48-48A16.115 16.115 0 0 1 352 368v-64c0-8.832 7.168-16 16-16s16 7.168 16 16v57.376l43.328 43.328c6.24 6.24 6.24 16.352 0 22.624zM204 304.608c-1.184-1.344-2.144-2.88-3.424-4.16L160 259.904l-40.576 40.576C104.32 315.552 96 335.616 96 357.024v27.008h96.8c-.48-5.28-.8-10.624-.8-16.032 0-22.368 4.352-43.68 12-63.392zM96 64v26.976c0 21.344 8.32 41.44 23.424 56.576L160 188.128l40.576-40.576C215.68 132.448 224 112.352 224 90.976V64H96z"/>
 			<path d="M304 0H16C7.168 0 0 7.2 0 16c0 8.864 7.168 16 16 16h16v58.976C32 129.44 46.976 165.6 74.176 192.8l31.2 31.2-31.2 31.2C46.976 282.432 32 318.56 32 357.024V416H16c-8.832 0-16 7.168-16 16s7.168 16 16 16l195.424-.032a173.31 173.31 0 0 1-12.608-32L64 416v-58.976c0-29.92 11.648-58.016 32.8-79.2l42.528-42.496A16.115 16.115 0 0 0 144 224c0-4.224-1.696-8.32-4.672-11.328L96.8 170.176c-21.152-21.152-32.8-49.28-32.8-79.2V32h192v58.976c0 29.92-11.648 58.016-32.8 79.2l-42.528 42.528C177.696 215.712 176 219.776 176 224c0 4.256 1.696 8.32 4.672 11.328l38.752 38.72a177.446 177.446 0 0 1 19.712-25.536L214.624 224l31.2-31.232C273.024 165.6 288 129.44 288 90.976V32h16c8.832 0 16-7.168 16-16s-7.168-16-16-16z"/>
 		</symbol>
		<symbol id="icon-rezult3" viewBox="0 0 512 512" xmlns="http://www.w3.org/2000/svg">
 			<path d="M336 32h-34.752C294.656 13.376 276.864 0 256 0s-38.656 13.376-45.28 32H176c-8.832 0-16 7.168-16 16v64c0 8.832 7.168 16 16 16h160c8.832 0 16-7.168 16-16V48c0-8.832-7.168-16-16-16z"/>
 			<path d="M416 64h-32v48c0 26.464-21.536 48-48 48H176c-26.464 0-48-21.536-48-48V64H96c-17.632 0-32 14.368-32 32v384c0 17.952 14.048 32 32 32h320c17.952 0 32-14.048 32-32V96c0-17.952-14.048-32-32-32zM251.328 347.328l-64 64a16.07 16.07 0 0 1-22.656 0l-32-32c-6.24-6.24-6.24-16.384 0-22.624s16.384-6.24 22.624 0L176 377.376l52.672-52.672c6.24-6.24 16.384-6.24 22.624 0s6.272 16.352.032 22.624zm0-128l-64 64a16.07 16.07 0 0 1-22.656 0l-32-32c-6.24-6.24-6.24-16.384 0-22.624s16.384-6.24 22.624 0L176 249.376l52.672-52.672c6.24-6.24 16.384-6.24 22.624 0 6.24 6.24 6.272 16.352.032 22.624zM368 384h-64c-8.832 0-16-7.168-16-16s7.168-16 16-16h64c8.832 0 16 7.168 16 16s-7.168 16-16 16zm0-128h-64c-8.832 0-16-7.168-16-16s7.168-16 16-16h64c8.832 0 16 7.168 16 16s-7.168 16-16 16z"/>
 		</symbol>
		<symbol id="icon-rezult4" viewBox="0 0 486.982 486.982" xmlns="http://www.w3.org/2000/svg">
 			<path d="M131.35 422.969c14.6 14.6 38.3 14.6 52.9 0l181.1-181.1c5.2-5.2 9.2-11.4 11.8-18 18.2 5.1 35.9 7.8 51.5 7.7 38.6-.2 51.4-17.1 55.6-27.2 4.2-10 7.2-31-19.9-58.6l-.9-.9c-16.8-16.8-41.2-32.3-68.9-43.8-5.1-2.1-10.2-4-15.2-5.8v-.3c-.3-22.2-18.2-40.1-40.4-40.4l-108.5-1.5c-14.4-.2-28.2 5.4-38.3 15.6l-181.2 181.1c-14.6 14.6-14.6 38.3 0 52.9l120.4 120.3zm139.6-305.1c12.1-12.1 31.7-12.1 43.8 0 7.2 7.2 10.1 17.1 8.7 26.4 11.9 8.4 26.1 16.2 41.3 22.5 5.4 2.2 10.6 4.2 15.6 5.9l-.6-43.6c.9.4 1.7.7 2.6 1.1 23.7 9.9 45 23.3 58.7 37l.6.6c13 13.3 14.4 21.8 13.3 24.4-3.4 8.1-39.9 15.3-95.3-7.8-16.2-6.8-31.4-15.2-43.7-24.3-.4.5-.9 1-1.3 1.5-12.1 12.1-31.7 12.1-43.8 0-12-12-12-31.6.1-43.7z"/>
 		</symbol>
		<symbol id="icon-phone" viewBox="0 0 108.27 108.27" xmlns="http://www.w3.org/2000/svg">
			<path d="M51.954 66.588c-9.284-7.634-15.483-17.054-18.742-22.414l-2.431-4.583c.85-.912 7.332-7.853 10.141-11.619 3.53-4.729-1.588-9-1.588-9S24.933 4.569 21.651 1.712C18.369-1.149 14.591.44 14.591.44 7.693 4.897.542 8.772.113 27.408.097 44.856 13.342 62.852 27.665 76.784c14.346 15.734 34.043 31.504 53.086 31.486 18.634-.425 22.508-7.575 26.965-14.473 0 0 1.59-3.775-1.268-7.06-2.86-3.284-17.265-17.688-17.265-17.688s-4.268-5.119-8.998-1.586c-3.525 2.635-9.855 8.496-11.38 9.917.003.005-10.586-5.64-16.851-10.792z"/>
		</symbol>
		<symbol id="icon-email" viewBox="0 0 109.294 109.294" xmlns="http://www.w3.org/2000/svg">
			<path d="M54.648 48.141L101.063 19.2a9.821 9.821 0 0 0-1.542-.132H9.775c-.525 0-1.038.054-1.541.132l46.414 28.941z"/>
			<path d="M57.569 59.331c-.062.04-.13.066-.194.104-.067.037-.139.073-.206.107a5.485 5.485 0 0 1-1.125.439c-.04.011-.078.017-.116.025-.423.099-.848.16-1.274.16H54.645c-.426 0-.852-.06-1.273-.16-.039-.009-.079-.015-.118-.025a5.64 5.64 0 0 1-1.124-.439 5.794 5.794 0 0 1-.207-.107c-.065-.037-.132-.063-.196-.104L.153 27.172A9.87 9.87 0 0 0 0 28.843v51.609a9.773 9.773 0 0 0 9.774 9.774H99.52c5.398 0 9.774-4.376 9.774-9.774V28.843c0-.572-.059-1.127-.154-1.671L57.569 59.331z"/>
		</symbol>
		<symbol id="icon-clock" viewBox="0 0 512 512" xmlns="http://www.w3.org/2000/svg">
			<path d="M507.203 205.836C487.977 105.187 406.813 24.023 306.164 4.797 126.117-29.594-29.594 126.117 4.797 306.164c19.227 100.648 100.391 181.813 201.039 201.039 180.047 34.391 335.758-121.32 301.367-301.367zM374.625 374.625C368.375 380.875 360.188 384 352 384s-16.375-3.125-22.625-9.375l-96-96c-6-6-9.375-14.125-9.375-22.625V128c0-17.688 14.328-32 32-32s32 14.313 32 32v114.75l86.625 86.625c12.5 12.5 12.5 32.75 0 45.25z"/>
		</symbol>
		<symbol id="icon-search" viewBox="0 0 15.97 16" xmlns="http://www.w3.org/2000/svg">
			<path d="M1507.6,334.763l-3.67-3.729a6.627,6.627,0,0,0,.98-3.481,6.456,6.456,0,1,0-6.45,6.554,6.38,6.38,0,0,0,3.69-1.175l3.63,3.685a1.273,1.273,0,0,0,1.82,0A1.315,1.315,0,0,0,1507.6,334.763Zm-9.14-2.78a4.43,4.43,0,1,1,4.36-4.43A4.4,4.4,0,0,1,1498.46,331.983Z" transform="translate(-1492 -321)"/>
		</symbol>
		<symbol id="icon-like" viewBox="0 0 18.03 15" xmlns="http://www.w3.org/2000/svg">
			<path d="M1382.02,1472s5.78-4.79,7.66-6.92a4.9,4.9,0,0,0,0-6.7,4.571,4.571,0,0,0-6.56,0l-1.1,1.12-0.02-.02-0.02.02-1.1-1.12a4.571,4.571,0,0,0-6.56,0,4.9,4.9,0,0,0,0,6.7c1.88,2.13,7.66,6.92,7.66,6.92" transform="translate(-1372.97 -1457)"/>
		</symbol>
		<symbol id="icon-pen" viewBox="0 0 16 18" xmlns="http://www.w3.org/2000/svg">
			<path d="M411.636,3695a14.371,14.371,0,0,0-14.117,13.32,44.739,44.739,0,0,1,4.611-5.48,0.35,0.35,0,0,1,.514-0.01,0.382,0.382,0,0,1,0,.53c-0.282.3-.57,0.61-0.858,0.92-0.166.18-.327,0.35-0.485,0.53a0.8,0.8,0,0,0-.088.1,27.12,27.12,0,0,0-5.186,7.56,0.367,0.367,0,0,0,.332.53,0.36,0.36,0,0,0,.332-0.22,20.515,20.515,0,0,1,1.487-2.79,14.136,14.136,0,0,0,12.126-7.69,0.389,0.389,0,0,0-.008-0.37,0.368,0.368,0,0,0-.313-0.18h-1.347l2.416-1.42a0.389,0.389,0,0,0,.163-0.21,14.957,14.957,0,0,0,.78-4.74A0.372,0.372,0,0,0,411.636,3695Z" transform="translate(-396 -3695)"/>
		</symbol>
		<symbol id="icon-calendar" viewBox="0 0 16 18" xmlns="http://www.w3.org/2000/svg">
			<path d="M614.222,3696.8h-0.889V3695h-1.778v1.8h-7.111V3695h-1.777v1.8h-0.889a1.783,1.783,0,0,0-1.769,1.8L600,3711.2a1.791,1.791,0,0,0,1.778,1.8h12.444a1.792,1.792,0,0,0,1.778-1.8v-12.6A1.792,1.792,0,0,0,614.222,3696.8Zm0,14.4H601.778v-9.9h12.444v9.9Zm-10.666-8.1h8.888v1.8h-8.888v-1.8Zm0,3.6h6.222v1.8h-6.222v-1.8Z" transform="translate(-600 -3695)"/>
		</symbol>
		<symbol id="icon-view" viewBox="0 0 18 11" xmlns="http://www.w3.org/2000/svg">
			<path d="M1177.93,3703.28c-0.14-.22-3.54-5.28-8.93-5.28-4.62,0-8.74,5.03-8.91,5.25a0.392,0.392,0,0,0,0,.5c0.17,0.22,4.29,5.25,8.91,5.25s8.74-5.03,8.91-5.25A0.39,0.39,0,0,0,1177.93,3703.28Zm-8.93,3.36a3.143,3.143,0,1,1,3-3.14A3.08,3.08,0,0,1,1169,3706.64Z" transform="translate(-1160 -3698)"/>
		</symbol>



		<symbol id="icon-breadcrumbs" viewBox="0 0 5 9" xmlns="http://www.w3.org/2000/svg">
			<path id="https:_www.flaticon.com_free-icon_keyboard-right-arrow-button_60758_копия_9" data-name="https://www.flaticon.com/free-icon/keyboard-right-arrow-button_60758 копия 9" class="cls-1" d="M664.947,131L664,132.048l3.108,3.45L664,138.949,664.947,140,669,135.5Z" transform="translate(-664 -131)"/>
		</symbol>
		<symbol id="icon-calc" viewBox="0 0 512 512" xmlns="http://www.w3.org/2000/svg">
			<path d="M448 0H64C46.368 0 32 14.368 32 32v448c0 17.664 14.368 32 32 32h384c17.664 0 32-14.336 32-32V32c0-17.632-14.336-32-32-32zM160 448H96v-64h64v64zm0-128H96v-64h64v64zm128 128h-64v-64h64v64zm0-128h-64v-64h64v64zm128 128h-64V256h64v192zm0-272c0 8.832-7.168 16-16 16H112c-8.832 0-16-7.168-16-16V80c0-8.832 7.168-16 16-16h288c8.832 0 16 7.168 16 16v96z"/>
		</symbol>
		<symbol id="icon-filter-table" viewBox="0 0 24 18" xmlns="http://www.w3.org/2000/svg">
			<path d="M410.143,1602.09h-4.286a1.267,1.267,0,0,0-.911.36,1.162,1.162,0,0,0-.375.87v2.45a1.132,1.132,0,0,0,.375.87,1.267,1.267,0,0,0,.911.36h4.286a1.269,1.269,0,0,0,.911-0.36,1.135,1.135,0,0,0,.375-0.87v-2.45a1.162,1.162,0,0,0-.375-0.87A1.269,1.269,0,0,0,410.143,1602.09Zm-8.572,0h-4.285a1.266,1.266,0,0,0-.911.36,1.162,1.162,0,0,0-.375.87v2.45a1.132,1.132,0,0,0,.375.87,1.266,1.266,0,0,0,.911.36h4.285a1.267,1.267,0,0,0,.911-0.36,1.132,1.132,0,0,0,.375-0.87v-2.45a1.162,1.162,0,0,0-.375-0.87A1.267,1.267,0,0,0,401.571,1602.09Zm0-13.09h-4.285a1.266,1.266,0,0,0-.911.36,1.132,1.132,0,0,0-.375.87v2.45a1.162,1.162,0,0,0,.375.87,1.266,1.266,0,0,0,.911.36h4.285a1.267,1.267,0,0,0,.911-0.36,1.162,1.162,0,0,0,.375-0.87v-2.45a1.132,1.132,0,0,0-.375-0.87A1.267,1.267,0,0,0,401.571,1589Zm8.572,6.54h-4.286a1.267,1.267,0,0,0-.911.36,1.162,1.162,0,0,0-.375.87v2.46a1.162,1.162,0,0,0,.375.87,1.259,1.259,0,0,0,.911.35h4.286a1.261,1.261,0,0,0,.911-0.35,1.166,1.166,0,0,0,.375-0.87v-2.46a1.162,1.162,0,0,0-.375-0.87A1.269,1.269,0,0,0,410.143,1595.54Zm-8.572,0h-4.285a1.266,1.266,0,0,0-.911.36,1.162,1.162,0,0,0-.375.87v2.46a1.162,1.162,0,0,0,.375.87,1.257,1.257,0,0,0,.911.35h4.285a1.259,1.259,0,0,0,.911-0.35,1.162,1.162,0,0,0,.375-0.87v-2.46a1.162,1.162,0,0,0-.375-0.87A1.267,1.267,0,0,0,401.571,1595.54Zm18.054-6.18a1.267,1.267,0,0,0-.911-0.36h-4.285a1.267,1.267,0,0,0-.911.36,1.132,1.132,0,0,0-.375.87v2.45a1.162,1.162,0,0,0,.375.87,1.267,1.267,0,0,0,.911.36h4.285a1.267,1.267,0,0,0,.911-0.36,1.162,1.162,0,0,0,.375-0.87v-2.45A1.132,1.132,0,0,0,419.625,1589.36Zm-9.482-.36h-4.286a1.267,1.267,0,0,0-.911.36,1.132,1.132,0,0,0-.375.87v2.45a1.162,1.162,0,0,0,.375.87,1.267,1.267,0,0,0,.911.36h4.286a1.269,1.269,0,0,0,.911-0.36,1.166,1.166,0,0,0,.375-0.87v-2.45a1.132,1.132,0,0,0-.375-0.87A1.269,1.269,0,0,0,410.143,1589Zm8.571,6.54h-4.285a1.267,1.267,0,0,0-.911.36,1.162,1.162,0,0,0-.375.87v2.46a1.162,1.162,0,0,0,.375.87,1.259,1.259,0,0,0,.911.35h4.285a1.259,1.259,0,0,0,.911-0.35,1.162,1.162,0,0,0,.375-0.87v-2.46a1.162,1.162,0,0,0-.375-0.87A1.267,1.267,0,0,0,418.714,1595.54Zm0,6.55h-4.285a1.267,1.267,0,0,0-.911.36,1.162,1.162,0,0,0-.375.87v2.45a1.132,1.132,0,0,0,.375.87,1.267,1.267,0,0,0,.911.36h4.285a1.267,1.267,0,0,0,.911-0.36,1.132,1.132,0,0,0,.375-0.87v-2.45a1.162,1.162,0,0,0-.375-0.87A1.267,1.267,0,0,0,418.714,1602.09Z" transform="translate(-396 -1589)"/>
		</symbol>
		<symbol id="icon-filter-list" viewBox="0 0 24 18" xmlns="http://www.w3.org/2000/svg">
			<path d="M462.571,1595.54h-4.285a1.267,1.267,0,0,0-.911.36,1.162,1.162,0,0,0-.375.87v2.46a1.162,1.162,0,0,0,.375.87,1.259,1.259,0,0,0,.911.35h4.285a1.259,1.259,0,0,0,.911-0.35,1.162,1.162,0,0,0,.375-0.87v-2.46a1.162,1.162,0,0,0-.375-0.87A1.267,1.267,0,0,0,462.571,1595.54Zm0-6.54h-4.285a1.267,1.267,0,0,0-.911.36,1.132,1.132,0,0,0-.375.87v2.45a1.162,1.162,0,0,0,.375.87,1.267,1.267,0,0,0,.911.36h4.285a1.267,1.267,0,0,0,.911-0.36,1.162,1.162,0,0,0,.375-0.87v-2.45a1.132,1.132,0,0,0-.375-0.87A1.267,1.267,0,0,0,462.571,1589Zm0,13.09h-4.285a1.267,1.267,0,0,0-.911.36,1.162,1.162,0,0,0-.375.87v2.45a1.132,1.132,0,0,0,.375.87,1.267,1.267,0,0,0,.911.36h4.285a1.267,1.267,0,0,0,.911-0.36,1.132,1.132,0,0,0,.375-0.87v-2.45a1.162,1.162,0,0,0-.375-0.87A1.267,1.267,0,0,0,462.571,1602.09Zm17.143-6.55H466.857a1.267,1.267,0,0,0-.911.36,1.162,1.162,0,0,0-.375.87v2.46a1.162,1.162,0,0,0,.375.87,1.259,1.259,0,0,0,.911.35h12.857a1.259,1.259,0,0,0,.911-0.35,1.162,1.162,0,0,0,.375-0.87v-2.46a1.162,1.162,0,0,0-.375-0.87A1.267,1.267,0,0,0,479.714,1595.54Zm0,6.55H466.857a1.267,1.267,0,0,0-.911.36,1.162,1.162,0,0,0-.375.87v2.45a1.132,1.132,0,0,0,.375.87,1.267,1.267,0,0,0,.911.36h12.857a1.267,1.267,0,0,0,.911-0.36,1.132,1.132,0,0,0,.375-0.87v-2.45a1.162,1.162,0,0,0-.375-0.87A1.267,1.267,0,0,0,479.714,1602.09Zm0.911-12.73a1.267,1.267,0,0,0-.911-0.36H466.857a1.267,1.267,0,0,0-.911.36,1.132,1.132,0,0,0-.375.87v2.45a1.162,1.162,0,0,0,.375.87,1.267,1.267,0,0,0,.911.36h12.857a1.267,1.267,0,0,0,.911-0.36,1.162,1.162,0,0,0,.375-0.87v-2.45A1.132,1.132,0,0,0,480.625,1589.36Z" transform="translate(-457 -1589)"/>
		</symbol>


		<symbol id="icon-stars" viewBox="0 0 11 11.031" xmlns="http://www.w3.org/2000/svg">
			<path d="M1056.57,959.407l-2.76-.274a0.477,0.477,0,0,1-.39-0.308l-0.99-2.516a0.467,0.467,0,0,0-.88,0l-0.97,2.516a0.491,0.491,0,0,1-.4.308l-2.75.274a0.507,0.507,0,0,0-.27.872l2.07,1.919a0.5,0.5,0,0,1,.15.49l-0.62,2.691a0.482,0.482,0,0,0,.7.548l2.3-1.42a0.452,0.452,0,0,1,.48,0l2.3,1.42a0.48,0.48,0,0,0,.7-0.548l-0.62-2.691a0.52,0.52,0,0,1,.15-0.49l2.08-1.919A0.513,0.513,0,0,0,1056.57,959.407Z" transform="translate(-1046.5 -955.5)"/>
		</symbol>
		<symbol id="icon-dialog" viewBox="0 0 11 10" xmlns="http://www.w3.org/2000/svg">
			<path d="M1107.5,955.991c-3.04,0-5.5,2.034-5.5,4.541a4.115,4.115,0,0,0,1.46,3.079,3.854,3.854,0,0,1-.74,2.4,4.848,4.848,0,0,0,2.76-1.25,6.552,6.552,0,0,0,2.02.316c3.04,0,5.5-2.033,5.5-4.541S1110.54,955.991,1107.5,955.991Z" transform="translate(-1102 -956)"/>
		</symbol>
		<symbol id="icon-burger" viewBox="0 0 20 13" xmlns="http://www.w3.org/2000/svg">
			<path d="M623.755,146.529h18.49a0.765,0.765,0,0,0,0-1.53h-18.49A0.765,0.765,0,0,0,623.755,146.529Zm0,5.734h18.49a0.765,0.765,0,0,0,0-1.529h-18.49A0.765,0.765,0,0,0,623.755,152.263Zm0,5.736h18.49a0.765,0.765,0,0,0,0-1.53h-18.49A0.765,0.765,0,0,0,623.755,158Z" transform="translate(-623 -145)"/>
		</symbol>
		<symbol id="icon-arrowToggle" viewBox="0 0 6 11" xmlns="http://www.w3.org/2000/svg">
			<path d="M635.135,290L634,291.279l3.729,4.216L634,299.713,635.135,301,640,295.5Z" transform="translate(-634 -290)"/>
		</symbol>
		<symbol id="icon-info" viewBox="0 0 111.577 111.577" xmlns="http://www.w3.org/2000/svg">
			<path d="M78.962 99.536l-1.559 6.373c-4.677 1.846-8.413 3.251-11.195 4.217-2.785.969-6.021 1.451-9.708 1.451-5.662 0-10.066-1.387-13.207-4.142-3.141-2.766-4.712-6.271-4.712-10.523 0-1.646.114-3.339.351-5.064.239-1.727.619-3.672 1.139-5.846l5.845-20.688c.52-1.981.962-3.858 1.316-5.633.359-1.764.532-3.387.532-4.848 0-2.642-.547-4.49-1.636-5.529-1.089-1.036-3.167-1.562-6.252-1.562-1.511 0-3.064.242-4.647.71-1.59.47-2.949.924-4.09 1.346l1.563-6.378c3.829-1.559 7.489-2.894 10.99-4.002 3.501-1.111 6.809-1.667 9.938-1.667 5.623 0 9.962 1.359 13.009 4.077 3.047 2.72 4.57 6.246 4.57 10.591 0 .899-.1 2.483-.315 4.747-.21 2.269-.601 4.348-1.171 6.239l-5.82 20.605c-.477 1.655-.906 3.547-1.279 5.676-.385 2.115-.569 3.731-.569 4.815 0 2.736.61 4.604 1.833 5.597 1.232.993 3.354 1.487 6.368 1.487 1.415 0 3.025-.251 4.814-.744 1.784-.493 3.085-.926 3.892-1.305zm1.476-86.506c0 3.59-1.353 6.656-4.072 9.177-2.712 2.53-5.98 3.796-9.803 3.796-3.835 0-7.111-1.266-9.854-3.796-2.738-2.522-4.11-5.587-4.11-9.177 0-3.583 1.372-6.654 4.11-9.207C59.447 1.274 62.729 0 66.563 0c3.822 0 7.091 1.277 9.803 3.823 2.721 2.553 4.072 5.625 4.072 9.207z"/>
		</symbol>
		<symbol id="icon-progressBar" viewBox="0 0 128 128" xmlns="http://www.w3.org/2000/svg">
			<style>
				.cls-1, .cls-2 {
				fill: none;
				stroke: #34a844;
				stroke-width: 8px;
				}

				.cls-1 {
				opacity: 0.1;
				}

				.cls-2 {
				stroke-linecap: round;
				fill-rule: evenodd;
				}

				.cls-3 {
				font-size: 18px;
				fill: #838383;
				font-family: Lato;
				}
			</style>
			<path id="bg_main" class="cls-2" d="M979,416a60,60,0,1,1-60,60" transform="translate(-915 -412)"/>
			<text id="_70_" data-name="70%" class="cls-3" x="47.446" y="70.657">70%</text>
		</symbol>
		<symbol id="icon-burger" viewBox="0 0 50 50" xmlns="http://www.w3.org/2000/svg">
			<path d="M623.755,146.529h18.49a0.765,0.765,0,0,0,0-1.53h-18.49A0.765,0.765,0,0,0,623.755,146.529Zm0,5.734h18.49a0.765,0.765,0,0,0,0-1.529h-18.49A0.765,0.765,0,0,0,623.755,152.263Zm0,5.736h18.49a0.765,0.765,0,0,0,0-1.53h-18.49A0.765,0.765,0,0,0,623.755,158Z" transform="translate(-623 -145)"/>
		</symbol>
		<symbol id="icon-pay1" viewBox="0 0 512 512" xmlns="http://www.w3.org/2000/svg">
			<path d="M0 208v192c0 17.664 14.368 32 32 32h448c17.664 0 32-14.336 32-32V208H0zm176 128H80c-8.832 0-16-7.168-16-16s7.168-16 16-16h96c8.832 0 16 7.168 16 16s-7.168 16-16 16zm224 32c-12.352 0-23.488-4.8-32-12.448C359.488 363.2 348.352 368 336 368c-26.496 0-48-21.504-48-48s21.504-48 48-48c12.352 0 23.488 4.8 32 12.448C376.512 276.8 387.648 272 400 272c26.496 0 48 21.504 48 48s-21.504 48-48 48zM480 80H32C14.368 80 0 94.368 0 112v32h512v-32c0-17.632-14.336-32-32-32z"/>
		</symbol>
		<symbol id="icon-pay2" viewBox="0 0 512 512" xmlns="http://www.w3.org/2000/svg">
			<path d="M208 224H16c-8.832 0-16 7.168-16 16v256c0 8.832 7.168 16 16 16h192c8.832 0 16-7.168 16-16V240c0-8.832-7.168-16-16-16zM96 384H64v-32h32v32zm0-64H64v-32h32v32zm64 64h-32v-32h32v32zm0-64h-32v-32h32v32z"/>
			<path d="M368 0H112c-8.832 0-16 7.168-16 16v176h139.424c11.36 0 20.576 8.736 20.576 19.552V256l32-32v-80c0-8.832 7.168-16 16-16h80V16c0-8.832-7.168-16-16-16zM192 160h-32v-32h32v32zm0-64h-32V64h32v32zm64 64h-32v-32h32v32zm0-64h-32V64h32v32zm64 0h-32V64h32v32z"/>
			<path d="M496 160H336c-8.832 0-16 7.168-16 16v55.424l-56.864 59.264A15.957 15.957 0 0 0 256 304v192c0 8.832 7.168 16 16 16h224c8.832 0 16-7.168 16-16V176c0-8.832-7.168-16-16-16zm-48 256h-64v-64h64v64zm0-128h-64v-64h64v64z"/>
		</symbol>
		<symbol id="icon-pay3" viewBox="0 0 512 512" xmlns="http://www.w3.org/2000/svg">
			<path d="M509.728 263.776l-48-80A15.964 15.964 0 0 0 448 176h-96v-48c0-8.832-7.168-16-16-16H112c-8.832 0-16 7.168-16 16v16H16c-8.832 0-16 7.168-16 16s7.168 16 16 16h80v32H48c-8.832 0-16 7.168-16 16s7.168 16 16 16h48v32H80c-8.832 0-16 7.168-16 16s7.168 16 16 16h16v48c0 8.832 7.168 16 16 16h50.944c6.624 18.592 24.224 32 45.056 32 20.832 0 38.432-13.408 45.056-32h133.888c6.624 18.592 24.224 32 45.056 32 20.832 0 38.432-13.408 45.056-32H496c8.832 0 16-7.168 16-16v-80c0-2.912-.768-5.76-2.272-8.224zM208 368c-8.832 0-16-7.2-16-16s7.168-16 16-16 16 7.2 16 16-7.168 16-16 16zm224 0c-8.8 0-16-7.2-16-16s7.2-16 16-16 16 7.2 16 16-7.2 16-16 16zm-48-96v-64h54.944l38.4 64H384z"/>
		</symbol>
		<symbol id="icon-pay4" viewBox="0 0 512 512" xmlns="http://www.w3.org/2000/svg">
			<path d="M320 0v128h128z"/>
			<path d="M320 160c-17.632 0-32-14.368-32-32V0H96C78.368 0 64 14.368 64 32v448c0 17.664 14.368 32 32 32h320c17.664 0 32-14.336 32-32V160H320zM176 97.984V80c0-8.832 7.168-16 16-16s16 7.168 16 16v18.016c10.016 2.272 19.36 6.496 27.072 12.768 6.88 5.568 7.904 15.648 2.304 22.496-5.6 6.88-15.68 7.872-22.496 2.304C208.832 130.688 200.704 128 192 128c-17.344 0-32 10.976-32 24s14.656 24 32 24c35.296 0 64 25.12 64 56 0 26.016-20.48 47.744-48 54.016V304c0 8.832-7.168 16-16 16s-16-7.168-16-16v-18.016c-10.016-2.272-19.36-6.496-27.072-12.768-6.88-5.6-7.904-15.68-2.304-22.528 5.6-6.912 15.648-7.872 22.496-2.304C175.168 253.312 183.296 256 192 256c17.344 0 32-10.976 32-24s-14.656-24-32-24c-35.296 0-64-25.12-64-56 0-26.016 20.48-47.744 48-54.016zM368 448H144c-8.832 0-16-7.168-16-16s7.168-16 16-16h224c8.832 0 16 7.168 16 16s-7.168 16-16 16zm0-64H144c-8.832 0-16-7.168-16-16s7.168-16 16-16h224c8.832 0 16 7.168 16 16s-7.168 16-16 16zm0-64h-64c-8.832 0-16-7.168-16-16s7.168-16 16-16h64c8.832 0 16 7.168 16 16s-7.168 16-16 16zm0-64h-64c-8.832 0-16-7.168-16-16s7.168-16 16-16h64c8.832 0 16 7.136 16 16 0 8.832-7.168 16-16 16z"/>
		</symbol>
		<symbol id="icon-photo" viewBox="0 0 512 512" xmlns="http://www.w3.org/2000/svg">
			<path d="M437.333,117.333h-64c-4.608,0-8.661-2.923-10.112-7.296l-6.741-20.245c-7.296-21.803-27.627-36.459-50.603-36.459    h-99.755c-22.997,0-43.328,14.656-50.581,36.459l-6.741,20.245c-1.472,4.373-5.547,7.296-10.133,7.296h-64    C33.493,117.333,0,150.827,0,192v192c0,41.173,33.493,74.667,74.667,74.667h362.667C478.507,458.667,512,425.173,512,384V192    C512,150.827,478.507,117.333,437.333,117.333z M256,416c-70.592,0-128-57.408-128-128s57.408-128,128-128s128,57.408,128,128    S326.592,416,256,416z" fill="#838383"/>
			<path d="M256,202.667c-47.061,0-85.333,38.272-85.333,85.333c0,5.888,4.779,10.667,10.667,10.667S192,293.888,192,288    c0-35.285,28.715-64,64-64c5.888,0,10.667-4.779,10.667-10.667S261.888,202.667,256,202.667z" fill="#838383"/>
		</symbol>

		<symbol id="icon-upload" viewBox="0 0 512 512" xmlns="http://www.w3.org/2000/svg">
			<path d="M380.032,133.472l-112-128C264.992,2.016,260.608,0,256,0c-4.608,0-8.992,2.016-12.032,5.472l-112,128    c-4.128,4.736-5.152,11.424-2.528,17.152C132.032,156.32,137.728,160,144,160h64v208c0,8.832,7.168,16,16,16h64    c8.832,0,16-7.168,16-16V160h64c6.272,0,11.968-3.648,14.56-9.376C385.152,144.896,384.192,138.176,380.032,133.472z"/>
			<path d="M432,352v96H80v-96H16v128c0,17.696,14.336,32,32,32h416c17.696,0,32-14.304,32-32V352H432z"/>
		</symbol>

		<symbol id="icon-peoples" viewBox="0 0 80.13 80.13" xmlns="http://www.w3.org/2000/svg">
			<path d="M48.355 17.922c3.705 2.323 6.303 6.254 6.776 10.817a11.69 11.69 0 0 0 4.966 1.112c6.491 0 11.752-5.261 11.752-11.751 0-6.491-5.261-11.752-11.752-11.752-6.429.002-11.644 5.169-11.742 11.574zm-7.699 24.062c6.491 0 11.752-5.262 11.752-11.752s-5.262-11.751-11.752-11.751c-6.49 0-11.754 5.262-11.754 11.752s5.264 11.751 11.754 11.751zm4.985.801h-9.972c-8.297 0-15.047 6.751-15.047 15.048v12.195l.031.191.84.263c7.918 2.474 14.797 3.299 20.459 3.299 11.059 0 17.469-3.153 17.864-3.354l.785-.397h.084V57.833c.003-8.297-6.747-15.048-15.044-15.048zm19.443-12.132h-9.895a14.483 14.483 0 0 1-4.47 10.088c7.375 2.193 12.771 9.032 12.771 17.11v3.758c9.77-.358 15.4-3.127 15.771-3.313l.785-.398h.084V45.699c0-8.296-6.75-15.046-15.046-15.046zm-45.049-.8c2.299 0 4.438-.671 6.25-1.814a14.544 14.544 0 0 1 5.467-9.276c.012-.22.033-.438.033-.66 0-6.491-5.262-11.752-11.75-11.752-6.492 0-11.752 5.261-11.752 11.752 0 6.488 5.26 11.75 11.752 11.75zm10.554 10.888a14.492 14.492 0 0 1-4.467-10.032c-.367-.027-.73-.056-1.104-.056h-9.971C6.75 30.653 0 37.403 0 45.699v12.197l.031.188.84.265c6.352 1.983 12.021 2.897 16.945 3.185v-3.683c.002-8.078 5.396-14.915 12.773-17.11z"/>
		</symbol>

		<symbol id="icon-kran" viewBox="0 0 512 512" xmlns="http://www.w3.org/2000/svg">
			<path d="M433.162 366.98c-5.684-6.328-16.641-6.328-22.324 0C402.679 376.063 362 422.879 362 452c0 33.091 26.909 60 60 60s60-26.909 60-60c0-29.121-40.679-75.938-48.838-85.02zM211 452H30c-16.569 0-30 13.431-30 30v15c0 8.284 6.716 15 15 15h211c8.284 0 15-6.716 15-15v-15c0-16.569-13.431-30-30-30zM482 181H30v151h181v-45c0-8.286 6.716-15 15-15h136v15c0 24.814 20.186 45 45 45h30c24.814 0 45-20.186 45-45v-15h15c8.284 0 15-6.716 15-15v-46c0-16.569-13.431-30-30-30zM30 362h181v60H30zM392 0H105C63.527 0 30 33.598 30 75v76h181V75c0-8.401 6.599-15 15-15h166c16.5 0 30-13.5 30-30S408.5 0 392 0z"/>
		</symbol>

		<symbol id="icon-toilet" viewBox="0 0 512 512" xmlns="http://www.w3.org/2000/svg">
			<path d="M241 0H61C44.431 0 31 13.431 31 30v15c0 8.284 6.716 15 15 15h210c8.284 0 15-6.716 15-15V30c0-16.569-13.431-30-30-30zM61 90v166c0 24.853 20.147 45 45 45h105V90H61zM436 241H241v60h225c8.284 0 15-6.716 15-15 0-24.853-20.147-45-45-45zM442.707 331H91v15c0 34.468 23.364 63.574 55.078 72.319l-24.302 73.935a14.992 14.992 0 0 0 2.051 13.521A15.02 15.02 0 0 0 136 512h180c4.819 0 9.346-2.314 12.173-6.226a14.991 14.991 0 0 0 2.051-13.521L306.815 421H316c58.588 0 108.071-37.734 126.707-90z"/>
		</symbol>

		<symbol id="icon-vann" viewBox="0 0 512 512" xmlns="http://www.w3.org/2000/svg">
			<path d="M482 242h-90v60h105c8.284 0 15-6.716 15-15v-15c0-16.569-13.431-30-30-30zM210 61.518V45c0-24.814-20.186-45-45-45h-60C80.186 0 60 20.186 60 45v197H30c-16.569 0-30 13.431-30 30v15c0 8.284 6.716 15 15 15h225v-60H90V45c0-8.276 6.724-15 15-15h60c8.276 0 15 6.724 15 15v16.518c-34.191 6.969-60 37.266-60 73.482 0 8.291 6.709 15 15 15h120c8.291 0 15-6.709 15-15 0-36.216-25.809-66.513-60-73.482zM392 332v45c0 8.291-6.709 15-15 15H255c-8.291 0-15-6.709-15-15v-45H32.783L56.03 444.397c3.164 19.072 17.856 33.56 36.299 36.885C98.306 499.109 115.181 512 135 512c19.556 0 36.24-12.539 42.437-30h157.127c6.196 17.461 22.881 30 42.437 30 19.819 0 36.694-12.891 42.671-30.718 18.441-3.31 33.119-17.739 36.195-36.313L479.219 332H392z"/>
			<path d="M270 242h92v120h-92z"/>
 		</symbol>

		<symbol id="icon-vann2" viewBox="0 0 512 512" xmlns="http://www.w3.org/2000/svg">
			<path d="M484.66 461.309l-8.06-19.028c-17.218 15.087-38.093 26.095-61.107 31.495l14.787 19.245c5.965 7.762 15.371 12.396 25.162 12.396a31.66 31.66 0 0 0 26.455-14.208 31.657 31.657 0 0 0 2.763-29.9zM35.401 442.281l-8.06 19.028a31.655 31.655 0 0 0 2.764 29.899 31.658 31.658 0 0 0 26.455 14.208c9.79 0 19.195-4.634 25.163-12.397l14.786-19.244c-23.015-5.399-43.891-16.407-61.108-31.494zM183.109 60.263h-1.639c-4.049-30.259-30.015-53.679-61.364-53.679h-13.814c-34.148 0-61.931 27.782-61.931 61.931v129.717h30.073V68.514c0-17.566 14.292-31.858 31.858-31.858h13.814c14.713 0 27.122 10.028 30.768 23.606h-2.429c-23.922 0-43.384 19.462-43.384 43.384v25.366c0 8.042 6.319 14.59 14.26 14.997.259.013.514.039.776.039h91.359c8.304 0 15.036-6.732 15.036-15.036v-25.365c.001-23.922-19.461-43.384-43.383-43.384zM16.881 316.254v19.082c0 61.821 50.294 112.116 112.115 112.116h254.009c61.82 0 112.115-50.294 112.115-112.116v-19.082H16.881zM490.37 242.697H21.63C9.703 242.698 0 252.402 0 264.329s9.703 21.63 21.63 21.63h468.74c11.927 0 21.63-9.703 21.63-21.63s-9.703-21.632-21.63-21.632z"/>
		</symbol>

		<symbol id="icon-shower" viewBox="0 0 475.558 475.558" xmlns="http://www.w3.org/2000/svg">
			<path d="M259.988 404.297c0 14.408 11.67 26.079 26.078 26.079s26.078-11.671 26.078-26.079c0-9.43-9.647-20.494-17.311-31.621-4.198-6.094-13.164-6.092-17.368-.001-7.665 11.105-17.477 22.212-17.477 31.622zM331.95 343.465c0 14.408 11.67 26.077 26.078 26.077s26.078-11.669 26.078-26.077c0-9.425-9.646-20.491-17.312-31.619-4.198-6.095-13.165-6.093-17.369-.002-7.664 11.107-17.475 22.216-17.475 31.621zM188.026 343.465c0 14.408 11.67 26.077 26.078 26.077s26.078-11.669 26.078-26.077c0-9.425-9.646-20.491-17.311-31.619-4.198-6.095-13.166-6.093-17.369-.002-7.664 11.107-17.476 22.216-17.476 31.621z"/>
			<path d="M258.763 111.628c-54.178 9.808-95.189 48.058-97.801 94.514a4.477 4.477 0 0 0 1.211 3.319 4.475 4.475 0 0 0 3.247 1.4h241.294a4.415 4.415 0 0 0 3.23-1.4 4.495 4.495 0 0 0 1.227-3.319c-2.69-47.77-45.932-86.887-102.401-95.294C298.931 48.16 244.722 0 179.304 0c-72.36 0-131.22 58.868-131.22 131.219v319.884c0 13.51 10.954 24.454 24.454 24.454 13.502 0 24.454-10.944 24.454-24.454V131.219c0-45.39 36.921-82.311 82.311-82.311 38.321 0 70.337 26.453 79.46 62.72z"/>
			<path d="M411.171 234.001H160.962c-9.012 0-16.302 7.3-16.302 16.302 0 9.005 7.29 16.303 16.302 16.303h250.209c9.012 0 16.303-7.298 16.303-16.303 0-9.001-7.291-16.302-16.303-16.302z"/>
		</symbol>

		<symbol id="icon-balloon" viewBox="0 0 512 512" xmlns="http://www.w3.org/2000/svg">
			<path d="M435.938,84.975C387.739,44.426,323.835,22.093,256,22.093c-139.067,0-256,95.46-256,218.074
			C0,308.28,36.741,371.5,99.275,412.669l-41,49.199c-10.633,12.759,1.541,31.885,17.712,27.361l127.252-35.622
			C360.473,481.621,512,380.468,512,240.168C512,181.354,484.987,126.238,435.938,84.975z M256.139,138.544
			c10.67,0,19.698,6.019,19.698,16.689c0,32.557-3.831,79.342-3.831,111.9c0,8.481-9.302,12.038-15.869,12.038
			c-8.755,0-16.143-3.557-16.143-12.038c0-32.558-3.83-79.342-3.83-111.9C236.166,144.563,244.921,138.544,256.139,138.544z
			 M256.412,340.182c-12.038,0-21.067-9.849-21.067-21.067c0-11.49,9.029-21.067,21.067-21.067c11.217,0,20.793,9.577,20.793,21.067
			C277.205,330.333,267.629,340.182,256.412,340.182z"/>
		</symbol>
		<symbol id="icon-youtube" viewBox="0 0 512 512" fill-rule="evenodd" clip-rule="evenodd" stroke-linejoin="round" stroke-miterlimit="2" xmlns="http://www.w3.org/2000/svg">
			<path d="M256 0c141.29 0 256 114.71 256 256 0 141.29-114.71 256-256 256C114.71 512 0 397.29 0 256 0 114.71 114.71 0 256 0zm153.315 178.978c-3.68-13.769-14.522-24.61-28.29-28.29C356.067 144 256 144 256 144s-100.067 0-125.025 6.688c-13.765 3.68-24.61 14.521-28.29 28.29C96 203.933 96 256.002 96 256.002s0 52.067 6.685 77.02c3.68 13.769 14.525 24.614 28.29 28.293C155.933 368 256 368 256 368s100.067 0 125.025-6.685c13.768-3.679 24.61-14.524 28.29-28.293C416 308.069 416 256.002 416 256.002s0-52.069-6.685-77.024zM223.999 304.003v-96.002l83.137 48.001-83.137 48.001z"/>
		</symbol>
		<symbol id="icon-telegram" data-name="a26ffde4-32dc-4780-b544-cb03fabb9f7c" xmlns="http://www.w3.org/2000/svg" viewBox="0 0 455.73099 455.73099"><path d="M316.244,149.903,149.082,253.579a7.60463,7.60463,0,0,0-3.255,8.717l22.423,72.253a1.46813,1.46813,0,0,0,2.861-.271l5.45-48.448a7.60278,7.60278,0,0,1,2.519-4.847L320.636,155.806a3.69194,3.69194,0,0,0-4.392-5.903Z"/><path d="M0,227.86526v.00046C0,353.71222,102.01875,455.731,227.86526,455.731h.00046c125.8465,0,227.86526-102.01877,227.86526-227.86526v-.00046C455.731,102.01875,353.71222,0,227.86572,0h-.00046C102.01875,0,0,102.01875,0,227.86526ZM379.882,118.418l-52.031,248.76a16.3935,16.3935,0,0,1-25.747,9.859l-78.559-57.665-40.039,40.881a13.29864,13.29864,0,0,1-22.185-5.308L132.42,263.239,54.979,240.371a11.11273,11.11273,0,0,1-.888-21.012L358.844,100.6a15.67772,15.67772,0,0,1,21.038,17.818Z"/></symbol>
		<!-- Generator: Adobe Illustrator 19.0.0, SVG Export Plug-In . SVG Version: 6.00 Build 0)  -->
	</defs>
</svg>