<svg id="Objects" xmlns="http://www.w3.org/2000/svg" viewBox="0 0 175.29911 44.82052"><title>rekry_logo_max</title><g id="logo"><g id="_Группа_" data-name="&lt;Группа&gt;"><path id="_Контур_" data-name="&lt;Контур&gt;" d="M32.6784,12.1775l.29023.09283L27.716,17.523a7.34617,7.34617,0,0,0-.734-.94515c-.01989-.02193-.03877-.04182-.05611-.0607l5.522-5.27918a2.54154,2.54154,0,0,1,.15966.84008l-.002.076Z" transform="translate(0 -0.0012)" style="fill:#6e7074"/><path id="_Контур_2" data-name="&lt;Контур&gt;" d="M34.07343,11.16553l-.23.23a7.09737,7.09737,0,0,0-.73195-.79213l.20454-.19536A.7712.7712,0,0,1,34.07343,11.16553Z" transform="translate(0 -0.0012)" style="fill:#6e7074"/><path id="_Контур_3" data-name="&lt;Контур&gt;" d="M36.59264,14.60439a6.07192,6.07192,0,0,1-4.39115,2.32947c-.04336,0-.08671-.001-.13007-.002a2.10243,2.10243,0,0,0,.558-1.37s2.04843-.75184.82682-3.242l-.40652-.13058-.34021-.10915a2.62643,2.62643,0,0,0-.18108-.91914,2.08327,2.08327,0,0,0-.6789-.91761l.22086-.36215a9.26507,9.26507,0,0,1,.96657.79366,7.02033,7.02033,0,0,1,.734.79315c.07651.09844.14894.19944.21627.302C34.66409,12.80386,35.54242,14.23408,36.59264,14.60439Z" transform="translate(0 -0.0012)" style="fill:#6e7074"/></g><g id="_Группа_2" data-name="&lt;Группа&gt;"><path id="_Контур_4" data-name="&lt;Контур&gt;" d="M10.9807,11.39557l-.24126-.24126a.81692.81692,0,0,1,.75745-.75745l.21627.20607A7.01529,7.01529,0,0,0,10.9807,11.39557Z" transform="translate(0 -0.0012)" style="fill:#6e7074"/><path id="_Контур_5" data-name="&lt;Контур&gt;" d="M16.86431,15.50976c-.26217.17393-.48813.34787-.607.44274-.08926-.1316-.27084-.41774-.43407-.68247l-.03825-.08671-.00357-.00816-.001-.001-.052-.11783-.16169-.36317-.03316.39632a6.65262,6.65262,0,0,1-.11068.74827l-3.5674-3.5674.29023-.09283.07294-.02346-.002-.076a2.56037,2.56037,0,0,1,.16118-.84161Z" transform="translate(0 -0.0012)" style="fill:#6e7074"/><path id="_Контур_6" data-name="&lt;Контур&gt;" d="M12.29667,11.15889a2.62389,2.62389,0,0,0-.18209.92118l-.34022.10915-.40652.13058c-1.22161,2.49014.82682,3.242.82682,3.242a2.10176,2.10176,0,0,0,.55852,1.37c-.04386.001-.08722.002-.13007.002a6.07224,6.07224,0,0,1-4.39167-2.32947C9.28167,14.23408,10.16,12.80386,10.83686,11.77c.06733-.10252.13976-.20352.21627-.302a6.99578,6.99578,0,0,1,.735-.79417,9.27545,9.27545,0,0,1,.96607-.79264l.22035.36215A2.08342,2.08342,0,0,0,12.29667,11.15889Z" transform="translate(0 -0.0012)" style="fill:#6e7074"/></g><g id="_Группа_3" data-name="&lt;Группа&gt;"><path id="_Контур_7" data-name="&lt;Контур&gt;" d="M18.166,26.67459c.13262.12191.26269.2331.39275.33511l-2.20961,2.12953a3.65089,3.65089,0,0,1-.75082-.58658L17.887,26.39457C17.97932,26.49352,18.07266,26.58686,18.166,26.67459Z" transform="translate(0 -0.0012)" style="fill:#6e7074"/><path id="_Контур_8" data-name="&lt;Контур&gt;" d="M17.58759,26.05129c.07345.08977.14792.17648.22239.25962L15.5208,28.47a3.829,3.829,0,0,1-.48711-.69318l2.23919-2.15809.02091.0301.00918.01428C17.39172,25.79473,17.4871,25.92531,17.58759,26.05129Z" transform="translate(0 -0.0012)" style="fill:#6e7074"/><path id="_Контур_9" data-name="&lt;Контур&gt;" d="M16.88013,29.61206l-.41979.405a.02983.02983,0,0,1-.02091.00255,4.25565,4.25565,0,0,1-1.04717-.64881l-.00255-.002-.00051-.00051-.01938-.01632-.00408-.00357-.0102-.00918c-.10048-.08569-.19995-.18056-.29584-.27952-.09742-.1015-.18975-.2076-.27595-.31573l-.00714-.00867-.01326-.01734-.00051-.00051a4.22747,4.22747,0,0,1-.61157-1.07216.032.032,0,0,1,.00306-.01938l.4208-.4055.04947.09538c.06631.12854.14894.28768.23259.43917l.00765.01326.01479.0255.002.00357A3.63491,3.63491,0,0,0,16.318,29.28766l.00255.00153.00612.00408.025.01479.01428.00867c.14078.08518.28615.16679.43.24789Z" transform="translate(0 -0.0012)" style="fill:#6e7074"/><path id="_Контур_10" data-name="&lt;Контур&gt;" d="M15.24077,29.42742l-1.7786,1.53377a2.27814,2.27814,0,0,0-.17393-.202,2.24248,2.24248,0,0,0-.19382-.18107l1.598-1.71994A4.4172,4.4172,0,0,0,15.24077,29.42742Z" transform="translate(0 -0.0012)" style="fill:#6e7074"/><path id="_Контур_11" data-name="&lt;Контур&gt;" d="M13.68966,31.66406l-.27952.26932c-.01479-.03265-.03009-.06478-.04641-.099a2.453,2.453,0,0,0-.46365-.7044,2.825,2.825,0,0,0-.67227-.47436c-.03723-.01989-.074-.04029-.11017-.06019l.28155-.27136a.04112.04112,0,0,1,.03162-.00408,2.44319,2.44319,0,0,1,.94464.74724l.001.00153.00051.00051a2.45613,2.45613,0,0,1,.31828.56209A.04338.04338,0,0,1,13.68966,31.66406Z" transform="translate(0 -0.0012)" style="fill:#6e7074"/><path id="_Контур_12" data-name="&lt;Контур&gt;" d="M12.80623,31.22744a2.14078,2.14078,0,0,1,.39836.59066c-.18108.11833-.43662-.08875-.43968-.0913l-.02907-.025a.02627.02627,0,0,0-.03418.001l-.02754.02652c-.14486.13976-.36572.03264-.39734.01632a.35687.35687,0,0,1,.03009-.39683l.02755-.02652a.02575.02575,0,0,0,.002-.03418l-.02346-.0306c-.02091-.02806-.19434-.2734-.07549-.44121A2.46569,2.46569,0,0,1,12.80623,31.22744Z" transform="translate(0 -0.0012)" style="fill:#6e7074"/></g><g id="_Группа_4" data-name="&lt;Группа&gt;"><path id="_Контур_13" data-name="&lt;Контур&gt;" d="M29.30431,28.62764a3.6579,3.6579,0,0,1-.75082.58658l-2.32794-2.24276a6.77112,6.77112,0,0,0,.69267-.59423Z" transform="translate(0 -0.0012)" style="fill:#6e7074"/><path id="_Контур_14" data-name="&lt;Контур&gt;" d="M29.86947,27.85234a3.903,3.903,0,0,1-.48762.69318l-2.383-2.24786q.07574-.07651.14945-.15557c.13415-.14639.26268-.2989.382-.45447.01326-.01734.027-.03468.03928-.052Z" transform="translate(0 -0.0012)" style="fill:#6e7074"/><path id="_Контур_15" data-name="&lt;Контур&gt;" d="M30.75137,27.72023a4.20369,4.20369,0,0,1-.61,1.07012l-.002.00306-.01326.01683-.00714.00867c-.08569.10813-.17852.21423-.27595.31522-.09589.09946-.19535.19434-.29584.28054l-.0102.00867-.00153.00153-.02244.01887-.00255.002a4.24619,4.24619,0,0,1-1.04717.6488.02906.02906,0,0,1-.01989-.002l-.4208-.4055.08875-.05c.13976-.07906.28461-.16067.42488-.24534l.01479-.00867.023-.01428.00816-.00459.00255-.00153A3.6435,3.6435,0,0,0,30.021,27.87223l.002-.00357.01479-.026.00765-.01326v-.00051c.08416-.15149.16628-.31012.2331-.43814l.049-.09589.4208.406A.032.032,0,0,1,30.75137,27.72023Z" transform="translate(0 -0.0012)" style="fill:#6e7074"/><path id="_Контур_16" data-name="&lt;Контур&gt;" d="M30.21019,28.93266l1.59753,1.72045a2.50307,2.50307,0,0,0-.19331.18107,2.32865,2.32865,0,0,0-.17394.202l-1.7786-1.53377A4.452,4.452,0,0,0,30.21019,28.93266Z" transform="translate(0 -0.0012)" style="fill:#6e7074"/><path id="_Контур_17" data-name="&lt;Контур&gt;" d="M32.78552,30.67045l-.11069.06019a2.82436,2.82436,0,0,0-.67176.47385,2.45323,2.45323,0,0,0-.46416.70491c-.01581.03316-.03213.06784-.04591.09947l-.28-.26983a.04337.04337,0,0,1-.00561-.03264,2.47794,2.47794,0,0,1,.31879-.5626l.001-.001a2.46054,2.46054,0,0,1,.39173-.406,2.43067,2.43067,0,0,1,.55342-.34174l.00918-.00153a.04245.04245,0,0,1,.02244.00561Z" transform="translate(0 -0.0012)" style="fill:#6e7074"/><path id="_Контур_18" data-name="&lt;Контур&gt;" d="M32.59577,31.42382a.35611.35611,0,0,1,.03009.39632.3612.3612,0,0,1-.39734-.01581l-.02754-.02652a.02515.02515,0,0,0-.03418-.001l-.02958.025c-.00255.00255-.25861.21015-.43917.09079a2.13277,2.13277,0,0,1,.39888-.59015,2.45,2.45,0,0,1,.56821-.41162c.11885.16883-.05406.41366-.07549.44223l-.02346.03009a.02525.02525,0,0,0,.00255.03418Z" transform="translate(0 -0.0012)" style="fill:#6e7074"/></g><path id="_Составной_контур_" data-name="&lt;Составной контур&gt;" d="M34.687,20.64357l-1.81635-.31624-4.2162-.73551q.0153.05508.03061.11323c.0306.1163.05662.22443.07957.3295l.002.01224.00561.02755,13.39842,2.33712H28.87535l-.00153.01275-.002.01734-.00255.01938c-.00765.05917-.0153.11986-.02448.18056-.00561.03162-.01122.06325-.01734.09436l-.01683.09487-.00918.051c-.00816.04591-.01683.09283-.02958.14129l-.0255.10864-.01785.076-.00663.02958c-.0051.02194-.0102.04387-.01632.06784l-.02652.09181a6.77781,6.77781,0,0,1-.59576,1.45318c-.01734.03111-.0357.06274-.05407.09385-.08569.14843-.18056.29737-.28206.44478l5.35774-.93393,8.9894-1.56744,2.72732-.47589Zm-9.29647,6.85988-.00153.001-.002.001-.27084.1367-.002.001-.00255.001-.09487.04183-.01173.0051-.01275.00561-.06274.02805-.88395,5.06954-1.63527,9.37706V28.27977l-.102.00255-.051.001h-.0051l-.05-.002-.20709-.0051-.051-.002-.02754-.001-.03367-.00255h-.00408l-.0964-.00765-.09487-.00816-.04693-.00357-.02448-.002h-.00357l-.00306-.00051-.0255-.00357-.06019-.00765c-.12191-.0153-.2484-.03111-.36725-.05611l-.102-.01836-.051-.00969-.00153-.00051-.002-.00051-.05152-.01173-.20249-.04845c-.05152-.01275-.102-.02755-.15047-.04183l-.05458-.01581-.1015-.02958c-.03519-.01071-.06988-.02346-.10048-.03468-.07855-.026-.14231-.04795-.19995-.06937l-.00153-.00051-.00153-.00051-.19229-.07753c-.02652-.00969-.051-.0204-.07447-.03111l-.027-.01173-.04795-.02193-.04846-.02244-.06121-.02856c-.04335-.01938-.08824-.03979-.13058-.06325l-.15149-.07957,3.00786,17.25809,1.76738-10.1345h.001L24.49031,32.9l.00459-.02755.01275-.07447.92781-5.31948Zm-2.97929-5.092v.001h.001v-.001Zm2.62174-7.373-.53812-3.08692-.31726-1.81635L22.41026.0012,19.92267,14.27591c.03979-.00663.07855-.01377.11731-.01989.09946-.01734.20607-.03316.32491-.04795l.03111-.00357L22.41026,2.653v11.5479l.01428.00255h.00051c.13058.01683.26626.03468.39479.0607.15.025.30043.06121.44631.0964l.10864.026.00255.00051.00255.00051.077.02244c.0658.01938.13262.03825.19841.05764l.07039.0204.00255.00051.00255.001.06988.024c.04438.01632.09079.03162.13772.04744.22392.07957.44375.16832.65339.2637.1265.05815.23973.11426.34633.17087.03264.01683.06478.03468.0964.052Zm-8.13555,9.933L16.897,24.971l-.00765-.0153c-.01122-.02244-.02244-.04488-.03316-.06733l-4.38912-.7651L2.65081,22.41146H16.27111v-.04285c0-.05611.00153-.11731.00459-.18566l.00255-.10354v-.00255l.00051-.00255v-.0051l.00153-.02958.002-.02448.00357-.04948.00816-.0964.00357-.04846v-.002l.00051-.002.00153-.0153c.001-.01224.002-.02448.00408-.03571l.02755-.21372c.00408-.03111.00867-.0607.01377-.09079l.002-.01071.00255-.0153.001-.00255.01683-.09385.01888-.102.00051-.002.00051-.00255.06019-.2535.00051-.00153.00051-.00153.01428-.05152.05815-.20046.00051-.00255.001-.002.06784-.19791a5.08751,5.08751,0,0,1,.2841-.65288c.05509-.10762.11783-.2178.19077-.33613h-.00051l.01479-.02244.02754-.04285.02755-.04284L10.922,20.50688l-.78805.13772L0,22.41146l10.135,1.7684,1.81533.31573,5.18176.90435-.02806-.04641C17.025,25.21887,16.95714,25.0939,16.89747,24.97148Z" transform="translate(0 -0.0012)" style="fill:#6e7074"/><path id="logo-2" data-name="logo" d="M20.49854,15.45336h0m.91914-1.21163a8.04179,8.04179,0,0,0-1.03951.06733c-.10814.01377-.21576.02908-.32032.04743-.052.00816-.103.01735-.154.02653h-.001c-.03366.00612-.06834.01275-.102.01989a8.05758,8.05758,0,0,0-1.00228.27033q-.30145.10252-.5728.22086c-.04183.01683-.08365.03519-.12446.05253l-.04489.01939c-.02346.01173-.04845.02142-.07192.03366l-.002.00051c-.0301.01479-.05917.02959-.08824.04285l-.01377.00664c-.101.05-.201.09538-.29328.14944-.09844.05356-.1923.10559-.28309.15557-.0148.00918-.02806.01836-.04285.02652l-.00715.00459-.00459.00255-.002.001c-.06834.04285-.13567.08365-.19944.125-.03162.01989-.06274.03825-.09283.05815l-.01479.00918-.00969-.00867.00715.0102-.01072.00766a8.42388,8.42388,0,0,0-.686.5065H16.2405c-.02652,0-.508-.77989-.508-.77989l-.04081-.09284-.002-.00306v-.00051l-.05458-.12292a6.79324,6.79324,0,0,1-.126.8258q-.03367.16143-.07447.32542c-.0306.125-.06478.24942-.1.37541v.00051a14.098,14.098,0,0,1-.49272,1.417c-.08467.20658-.1724.406-.25962.59474h-.001c-.01378.03008-.02806.05916-.04183.08824.02244-.0102.0454-.01989.06886-.03009l.00663-.00255c.03367-.01479.06733-.02958.102-.04387.22239-.09385.458-.18566.70339-.27238.33664-.12037.69011-.23157,1.04308-.32593l.01632-.00459c.07294-.01938.14639-.03826.21933-.05662a7.92245,7.92245,0,0,1,1.48276-.24075h.00306l-.1265-.06172s-.83753-.47181-.83753-.48355c.07753-.06376.16577-.13415.26064-.21167.05458-.03979.1112-.0811.17138-.12344.0301-.02193.06019-.04488.09181-.06783.0301-.02142.06376-.04183.09742-.06427.03366-.02193.06733-.04489.103-.06785.03366-.02244.06937-.04539.10456-.06834.01683-.00867.03315-.01887.04948-.02806.01632-.01019.03367-.01989.05-.02907.03111-.01836.06223-.03621.09385-.05559.01173-.00612.024-.01378.03673-.02092.078-.04846.16475-.08722.25044-.13312.04285-.02193.08722-.0454.13211-.06835.04539-.01989.09181-.04081.13823-.06172l.0199-.00918c.08773-.03927.17852-.07753.27187-.11579.02907-.01173.05917-.02346.08977-.03468.02091-.00816.04284-.0153.06376-.02347q.03825-.0153.07957-.02907c.101-.03673.20658-.07141.31522-.103h.00051c.052-.0153.10406-.0301.15761-.04489v-.00051c.03774-.0102.076-.0204.11425-.03009.05814-.01581.11834-.0301.179-.04387l.03316-.00714c.03927-.00816.07906-.01632.11935-.025.01887-.00408.03825-.00816.05814-.01173.03163-.00612.06376-.01173.09641-.01734.02652-.0051.05406-.00969.08008-.01326l.01939-.00408h.00255l.01633-.00255c.02652-.00459.05406-.00816.08058-.01174.03979-.00663.0811-.01173.12191-.01632.03265-.00459.06478-.00817.09742-.01275l.09844-.0102.023-.002h.00408c.0301-.00357.06121-.00612.09232-.00816l.00969-.00051c.0459-.00459.09232-.00765.13874-.01021l.00561-.00051.00357.00051c.0556-.00357.1117-.00663.16832-.00816h.00663c.0153-.001.0306-.001.04743-.001.05509-.00153.11171-.00255.16833-.00255.03622,0,.07294,0,.10915.001H21.813l.03009.00153.06019.00459c.03979.002.0811.00357.12191.00663.04029.00255.0811.0051.12037.00714.08722.01173.17393.01887.26472.03112h.001c.053.00612.10558.01428.1622.02448.15048.01989.29993.05611.454.08824.03724.0102.07549.01989.11273.0301.03825.0102.07651.01989.11374.03009l.05866.0153.0561.01836c.03826.01173.07549.02448.11375.03622.07652.0255.153.052.229.08059a5.8305,5.8305,0,0,1,.682.30043c.14792.07753.29329.16118.43764.25146.02091.01275.0408.02652.06172.03979.049.03213.09844.06478.1469.09844.049.03315.09743.06733.14537.103.02856.01989.05662.0408.08416.06171.027.02194.05509.04387.08365.0658l.00459.00357h.001l.07243.05815c.02856.024.05764.04693.08569.07141.03111.02551.06223.05253.09232.07906.02346.02091.04743.04182.0709.06477.03009.02653.05917.05356.08926.08213.0255.02244.05.04743.07447.07089q.026.02449.052.052c.00919.00816.01734.01734.02551.0255.03315.03163.06376.06478.09589.09743.00969.01072.02091.02193.0306.03367.03112.03162.06121.06478.08926.09844.03418.0352.0658.07294.09794.11018.00612.00816.01326.0153.01989.02448.03162.03723.06376.07651.09487.11476.06274.07754.12293.15609.18108.23769.01938.02551.03723.051.0556.07753.03366.04845.06733.09742.1.1469.024.03621.04743.07242.07039.10915.0199.03163.03928.06376.05917.09539.01887.03213.03826.06376.05662.09691l.00051.00051c.02142.03673.04131.07243.06121.10865l.00714.01377q.02755.04744.052.0964a.18046.18046,0,0,1,.01632.03112c.01683.03009.03213.06172.04743.09283a.149.149,0,0,1,.01122.02194c.01734.03367.03366.06835.049.103.02449.05151.04948.10354.0709.15659.0102.02193.0204.04387.02959.06631v.001l.00867.02194q.01684.03825.03214.07651l.02448.06121.001.00153c.0102.0255.01989.052.02907.07855l.0301.08365c.01377.03723.02754.07447.0403.11273l.00459.01479.01429.04285v.001l.01938.06019c.00714.02092.01327.04285.01989.06427.00714.023.01377.04591.01989.06937.00918.02754.01633.0556.024.08365.00357.0102.0051.02041.00816.0301.00918.03366.01786.06733.027.102l.01173.04947c.00765.03112.0148.06172.02142.09283.02091.0913.03876.18311.05509.27493.00867.05049.01836.10048.024.14894.0102.06324.01989.126.026.18975.00408.02346.00765.04693.00969.07039l.0051.05559c.00306.02551.00459.05.00664.075.00714.06988.01173.14077.0153.21116l.001.01378.001.01734c.00154.03825.00256.07651.0046.11527v.02652c.00153.02908.00153.05815.00153.08774.002.07651.001.15353-.001.22953v.04642l-.00051.0209-.00561.08621c-.00255.05764-.00663.11476-.0102.1724-.001.03112-.00459.053-.00714.07855l-.00816.07447-.00255.02806v.001l-.01377.1214c-.00816.05151-.01632.10354-.02551.15659-.00918.052-.01479.10456-.02754.15659l-.03265.15557-.01632.07855-.02092.07753a5.57852,5.57852,0,0,1-.46467,1.20937,5.42826,5.42826,0,0,1-.279.47027l-.049.07294h-.001c-.0153.02347-.03162.04744-.04794.0709-.03468.05-.09589.14588-.09589.14588-.0658.08365-.13415.16577-.204.24585-.01071.01276-.02193.02449-.03264.03622l-.001.001-.01479.01581-.00357.00459c-.00714.00867-.0153.01683-.02245.026-.01122.01275-.02193.025-.03315.03673l-.001.001c-.05509.0607-.11171.12089-.16935.179l-.001.001a5.50716,5.50716,0,0,1-.42947.39428l-.001.002c-.024.01939-.04642.03826-.07039.05662-.03469.02805-.06886.0556-.10456.08161-.06478.05049-.13211.09946-.19944.14588-.052.03367-.10354.06937-.15608.10405l-.04182.02754c-.03826.02551-.07855.04795-.11834.07142-.03979.023-.07906.04692-.11834.07038l-.01989.01071-.075.0403-.05714.03009-.076.04081-.078.03673-.15608.07345c-.05254.024-.10558.04489-.15914.06784-.05356.02142-.10559.04437-.16118.06274l-.16322.05917c-.027.00969-.05457.01836-.08263.02653l-.08314.0255-.09742.03009-.06937.01887-.16934.04182c-.05662.01581-.11375.02551-.17138.03673l-.17088.03468-.17393.02551-.08671.01173c-.02907.0046-.05815.00612-.08824.00918l-.175.01633c-.04948.00459-.09742.0051-.1469.00713h-.001l-.02805.001-.08824.00459-.04387.00153h-.04437l-.177-.00153h-.07907l-.09487-.00664-.09538-.0051-.04846-.00306-.024-.00153-.02091-.002c-.11069-.01377-.22137-.02193-.33868-.04387l-.08722-.01326-.04387-.00765-.04284-.00918-.17292-.03723c-.05764-.01275-.11425-.0301-.17138-.04437l-.0857-.02193c-.028-.00816-.05661-.01837-.08467-.02754l-.16934-.05458-.16577-.06172c-.0556-.0204-.10966-.0459-.16424-.06835-.05458-.025-.11017-.04591-.16271-.07294l-.024-.01173h-.001l-.07906-.04029-.0556-.02754-.02346-.01275c-.0255-.01326-.051-.02806-.07651-.04183-.01837-.0107-.03775-.02193-.0556-.03162-.02652-.01479-.053-.02856-.07855-.04386l-.07549-.04743c-.04642-.02908-.09385-.0556-.13874-.0862L19.356,26.5073c-.05-.03316-.099-.06733-.14843-.102l-.00051-.001-.00867-.00663h-.00051v-.00051c-.14129-.102-.278-.2132-.41009-.329a5.22166,5.22166,0,0,1-.44988-.458c-.01836-.01939-.0357-.03928-.052-.05866-.03162-.03825-.06376-.07753-.09488-.11731-.09079-.11476-.1775-.23412-.25758-.357h-.001l-.03724-.05764a.27343.27343,0,0,1-.01938-.0301v-.00051l-.0153-.02193a5.64817,5.64817,0,0,1-.33869-.64064,5.56261,5.56261,0,0,1-.23973-.66564l-.00561-.01836c-.01071-.03826-.02091-.07753-.03009-.11578-.00816-.03265-.01632-.0653-.02346-.09844-.00561-.02347-.01122-.04693-.01632-.07193-.01122-.04743-.0204-.09538-.02908-.14384-.00816-.04437-.01683-.08823-.024-.13312l-.00255-.01785c-.00561-.03673-.01123-.07294-.01581-.10967l-.0051-.0408c-.00561-.0454-.01122-.0913-.01581-.1367-.00969-.09743-.01632-.19587-.01989-.29431l-.001-.00816V22.4691c-.00153-.01938-.00153-.03826-.00255-.05764-.002-.05457-.002-.11017-.002-.16577,0-.03826,0-.07652.001-.11375v-.10814l.002-.02091.00255-.0505L17.1,21.856l.00255-.049c.001-.01581.002-.03214.00357-.0459l.01938-.17394c.00255-.028.00714-.05814.01275-.08722l.01377-.09028.01326-.09028.02041-.08722.01785-.08926.0102-.04386.01071-.04387.04693-.175.05457-.17291c.01632-.049.03367-.09844.052-.1469l.01785-.05c.01122-.02908.023-.05917.0357-.08824.03009-.074.06172-.1469.0964-.21882.01581-.03265.03111-.06529.04845-.09793l.00714-.01479c.01378-.02755.02755-.05356.04183-.08008.03825-.07294.07957-.14486.12292-.21525l.01122-.01785c.00969-.01734.01989-.03367.03111-.0505a.21554.21554,0,0,1,.0153-.02449c.01989-.03366.04285-.06733.06529-.1l.00459-.00765.01275-.01785c.02193-.03367.0459-.06682.07039-.09946.01071-.01632.023-.03162.03468-.04846l.00459-.00612h.00051l.01275-.01734c.0403-.053.08059-.10558.125-.15659l.001-.001.00255-.00358c.025-.03112.0505-.06223.076-.09181.02244-.0255.04539-.052.06886-.07753l.00561-.00663c.02193-.02244.04285-.0454.06478-.06835.03622-.03928.07447-.07753.11273-.11477l.00459-.00459c.0408-.04081.08365-.0811.1265-.11987.04387-.03928.08773-.07855.13313-.11681l.01836-.01479c.03519-.03009.0709-.05814.10762-.08722.05254-.0408.10711-.08212.16169-.1214.04744-.03366.09487-.06528.14332-.09742l.01072-.00714.04845-.03009h.001c.02448-.01531.04795-.03112.07294-.04641.0306-.01888.06274-.03724.09436-.0556.03673-.02193.074-.04285.1112-.06274.04488-.02449.08926-.04846.13466-.0709.03213-.01683.06478-.03213.09691-.04642h.001c.01989-.0102.03979-.01938.0607-.02856.03468-.01633.06937-.03112.10507-.0454h.00051q.1974-.08339.40091-.14843a4.30615,4.30615,0,0,1,.69624-.16118l.08824-.01377c.02908-.00357.05815-.00816.08825-.0102l.1775-.01735c.05917-.00459.11834-.0051.178-.00816.02959-.00153.05968-.00357.08926-.00357l.08926.001.08925.001H21.841l.01734.00051.023.001.18771.01173.16934.01938c.02806.002.05815.00714.08671.01173l.08518.01479h.002a4.2811,4.2811,0,0,1,.67889.17546,4.2088,4.2088,0,0,1,1.2114.67533c.04285.0352.0857.0709.12752.10813.02244.02041.0454.0403.06835.06019.0153.0148.03009.02805.04437.04285.02194.02091.04387.04182.0658.06376.02907.02754.05713.05559.08467.08365.02805.02857.05457.05764.08109.08671l.00358.00358c.02092.02295.0408.04539.06121.06835.026.02907.051.05815.07549.08824.03265.03928.06478.07957.09538.11936l.01378.01836q.05049.0658.0964.13312l.00408.0046c.03162.0454.06274.09283.09283.14027.01377.02091.027.04284.03979.06477v.00051a.20793.20793,0,0,1,.01581.025q.02448.04055.049.08263c.01275.02194.02551.04489.03724.06733.01581.02653.03009.053.04387.08008.04846.0913.09283.18413.13415.279a3.95865,3.95865,0,0,1,.17291.48355c.0153.052.02908.10406.04285.15609.02907.10711.049.21729.07089.327.00715.05559.01581.11017.023.16577l.00612.04081.00357.04182.00867.08314c.01173.13823.01887.27492.01683.41315v.01734c.002.10151-.00153.20148-.00867.30349-.00306.05917-.00918.11017-.01581.16322l-.00816.07906-.00561.03723c-.00255.01479-.00408.02958-.00714.04387-.01428.10762-.03927.21423-.06274.31879a3.70669,3.70669,0,0,1-.205.61106,3.94875,3.94875,0,0,1-.29941.5621l-.024.0357.01173.00714-.00154.002a3.98877,3.98877,0,0,1-.29431.36419l-.0102.01173-.00714.00765-.00255.00357c-.06478.0709-.13211.13823-.20148.203-.02754.02551-.05458.05-.08314.075l-.00051.00051a3.824,3.824,0,0,1-.66156.46824c-.0199.01122-.03979.023-.06121.03315a3.73463,3.73463,0,0,1-.48711.21729c-.04744.01683-.09283.0357-.14129.04948-.04743.01428-.09487.02806-.1418.04284-.09589.02449-.19127.051-.28819.06733-.09538.02193-.1928.03265-.28972.04744-.03366.00255-.06631.00612-.1.00918-.02448.00255-.05.00459-.075.00612-.03825.00357-.07651.00561-.11476.00663-.04488.00255-.08977.00357-.13415.00357-.05152,0-.10253-.001-.15353-.001-.04845-.00255-.0964-.00612-.14384-.00817-.051-.002-.09487-.00918-.14231-.01377a3.58308,3.58308,0,0,1-.54832-.10813,3.75525,3.75525,0,0,1-.38612-.13568c-.0301-.01224-.06019-.02551-.08926-.03825l-.03927-.01734a3.56039,3.56039,0,0,1-.69216-.43l-.00561-.00357c-.06274-.0505-.12394-.103-.18209-.1571a3.38674,3.38674,0,0,1-.35245-.3744c-.04845-.05712-.09283-.11834-.1367-.179l-.01479-.02142c-.02448-.03366-.04641-.06886-.06988-.10354l-.03366-.052-.03214-.053a3.41182,3.41182,0,0,1-.27951-.58556q-.05586-.14766-.0964-.29584a3.45458,3.45458,0,0,1-.11018-.61973c-.00306-.02806-.00459-.0556-.00662-.08365a3.26155,3.26155,0,0,1-.0051-.33052c-.001.01734-.002.03469-.002.052a3.24237,3.24237,0,0,1,.0964-.81662,3.20058,3.20058,0,0,1,.18311-.52639l.00459-.00918c.00561-.01173.01173-.02245.01836-.03468.02346-.04438.049-.08926.07549-.13159l.01632-.02755c.01836-.03009.03673-.05917.0556-.08722.01377-.02142.02856-.04233.04284-.06324.05-.07294.103-.14282.15761-.20913.01734-.02193.03673-.04387.05356-.0658.01938-.02092.03775-.04183.05662-.06274.03724-.04132.0755-.0811.11477-.11834.0658-.06477.13211-.126.19944-.1826a3.2086,3.2086,0,0,1,.57127-.379c.02908-.01531.05764-.02907.08671-.04233.01989-.01122.0408-.02041.0607-.02959l.01632-.00713.03825-.01734a.36687.36687,0,0,1,.03876-.01632l.04794-.0199c.01632-.00765.03214-.01275.04744-.01938l.03724-.01377c.02448-.00969.04845-.01683.07192-.0255.02652-.00867.05407-.01785.07957-.02551.03978-.01275.078-.02346.11578-.03366l.03622-.00918.01632-.00408.05662-.01377c.03112-.00765.0607-.01378.09079-.02041.06019-.01173.11578-.02142.16985-.02907.03876-.00612.077-.00969.11273-.01428.10865-.01173.19842-.01632.2688-.01836l.05866-.001c.03519,0,.06376.001.08519.001h.04845s-.01632,0-.04845-.002c-.02857,0-.06988-.00255-.12344-.00255h-.0204a3.23092,3.23092,0,0,0-.55495.05c-.02653.00459-.05254.0102-.0811.01581l-.06834.01428c-.0255.00561-.05152.01173-.078.01938-.02755.00612-.05458.01377-.08212.02193-.02908.00816-.05917.01734-.09028.027-.02652.00816-.05253.01735-.08008.02754-.01173.00357-.023.00714-.03468.01173h-.001a3.21236,3.21236,0,0,0-.33868.14282c-.02448.01224-.05.02551-.07447.03826l-.076.04132-.06376.03622c-.08161.04846-.16475.102-.24738.1622-.025.01734-.04948.0357-.07294.05356-.01989.01479-.03825.02959-.05662.04387l-.01377.01173-.00714.00561h-.001c-.02244.01836-.0454.03723-.06733.05764-.02193.01785-.04387.03723-.06478.05713l-.001.001c-.03876.03468-.078.07192-.11528.11017l-.03774.03825c-.01326.01479-.027.02908-.0408.04386l-.00918.00969c-.00816.00765-.0153.01581-.02244.024a3.187,3.187,0,0,0-.26983.34175c-.023.03264-.04489.06528-.06477.09895l-.01072.01734H18.95l-.00255.00459c-.0255.04081-.051.08314-.076.12548a3.22991,3.22991,0,0,0-.304.73806,3.37439,3.37439,0,0,0-.11935.89975l.00357.10457.00255.04488c0,.01377.001.02754.002.04132l.002.02449c.00153.03008.00408.05916.00816.08926.00357.03366.00714.06835.01173.102s.00918.06834.01429.102c.01122.06835.024.13568.03825.204.00765.03468.01581.06937.024.10456.01734.0658.0357.13211.05662.19791.00969.03366.02091.0663.03264.09946.01071.03265.023.06528.0357.09793.00867.025.01785.04948.02805.074l.00459.0102.00918.02346a.443.443,0,0,0,.01735.04285l.00867.02194c.0102.02346.0204.04743.03111.07039l.00357.00714.00766.01632.00153.00459.001.001.00918.01887c.01633.03724.03468.074.05356.11018.023.04386.04642.08773.07141.13108l.03162.0556.03469.05559c.02346.03673.04539.075.06988.11017l.0204.02856v.001c.04285.06274.08621.12446.13466.18465a3.58543,3.58543,0,0,0,.36062.40091c.06733.06529.13874.12854.21219.18923.02754.023.05458.04489.08314.0658q.03825.02831.07651.05815l.00816.00561.03825.02754a.4122.4122,0,0,0,.03927.027c.0301.02091.06019.04081.09028.0612.03622.02347.07243.04642.10915.06836l.02347.01326q.03978.02372.07957.0459c.01734.00969.03417.01989.05254.02907.03367.01836.06835.03622.103.05356.01836.00816.0357.01734.05356.02448.03825.01836.07651.0357.11579.052h.001l.00561.00306c.05253.02245.1066.04438.16118.06427l.01888.00765.06733.02448.00663.002q.05892.0199.11936.03826h.001c.04437.01428.08926.027.13466.03876.04285.01225.08569.02193.12854.03213l.01377.00255.00357.001.00663.00153.00511.001c.04437.0102.08926.01938.13465.02652.04948.00918.09946.01734.15047.024.05.00612.103.01428.15047.01785.05.00357.1.00765.15.01173.07549.00153.152.00561.22851.00561.026,0,.05152-.00051.07753-.00153.03009,0,.06019-.001.0913-.00306.03876-.001.07753-.00357.11834-.00612l.12548-.01071c.09436-.01122.18974-.02193.28462-.03927.10354-.01684.20657-.04234.30859-.0658.052-.01479.103-.02805.154-.04284.052-.01378.102-.03264.152-.049a4.06687,4.06687,0,0,0,.59473-.25605l.00459-.00306c.04489-.02346.09029-.049.13415-.07447l.00816-.00561.02193-.01275c.03928-.02245.0765-.0454.11476-.06988.04183-.02652.08263-.05407.12395-.08212.00969-.00612.01888-.01275.02806-.0199.03621-.025.07192-.05049.10661-.0765l.028-.02193c.02857-.02091.0556-.04285.08315-.06477.04641-.03622.09079-.07448.13568-.11375h.001l.05254-.04743c.03316-.02908.06478-.05815.09589-.08926.0408-.03928.08008-.07906.11935-.12038.03265-.03468.06529-.06988.09845-.10661l.03265-.03723.00917-.01072.00613-.00662.024-.02806c.01785-.02193.0352-.04387.05355-.0658.0301-.03622.05917-.074.08774-.11222.01275-.01684.02448-.03366.03723-.05l.00918-.01173c.00867-.01275.01785-.02449.026-.03724.01581-.02091.0301-.04183.04489-.06376a4.179,4.179,0,0,0,.34174-.60494,4.10435,4.10435,0,0,0,.23871-.66206c.02908-.11477.05713-.23055.07651-.34838l.00612-.03367.0102-.0556.01173-.08977c.00816-.06019.01632-.12292.01989-.17852l.00663-.08569.00357-.04285.00153-.02652v-.023c.002-.0607.00408-.12191.00561-.1826l-.00153-.099c-.001-.03315-.001-.0658-.002-.099l-.00662-.0913-.00714-.09028-.00255-.04539-.00561-.0454c-.00714-.06121-.01428-.1214-.02194-.18158-.02091-.12089-.03979-.24126-.06886-.36062-.01326-.05458-.02652-.10916-.04132-.16374-.01275-.05-.02653-.10048-.04182-.15047l-.00357-.01275-.01633-.052c-.00765-.02193-.01479-.04336-.02193-.06631-.02908-.08824-.06223-.175-.09743-.26166-.02295-.05611-.04743-.1117-.07192-.1673l-.00357-.00663c-.024-.05356-.04846-.10661-.075-.15812-.02193-.04488-.0454-.08926-.06937-.13414l-.00052-.001-.00663-.01173c-.0102-.01887-.02091-.03928-.03162-.05815-.0255-.04489-.051-.08926-.07753-.13313l-.04131-.0658c-.02908-.04641-.05968-.09283-.0908-.13823-.04285-.06274-.08773-.125-.13313-.18516-.03111-.04182-.06376-.08262-.0964-.12292v-.00051a4.75881,4.75881,0,0,0-.40193-.43458c-.03979-.03928-.0811-.07753-.12293-.11578-.03366-.03009-.06835-.06019-.103-.08926a4.716,4.716,0,0,0-1.33689-.7855,4.81413,4.81413,0,0,0-.759-.21474l-.09589-.01836h-.00153c-.03264-.00511-.06477-.01275-.09844-.01633-.06835-.00816-.13568-.01734-.203-.02653l-.1877-.0153-.024-.002-.0306-.00255-.04948-.001-.09844-.00255-.1-.00357-.01989-.00051c-.026,0-.05254.00153-.07957.00153-.06529.00255-.13211.00255-.19842.0051l-.19943.01479c-.03265.00153-.06631.00561-.09946.0102l-.099.01173q-.20122.026-.40091.06631c-.05305.01122-.10559.023-.15863.0357l-.0357.00918c-.06427.01632-.128.03367-.19178.05254-.09946.02907-.19791.06222-.29533.0964-.11272.0403-.22494.08416-.33511.13211v.001l-.06682.03009c-.01989.00816-.03876.01734-.05814.02652l-.03826.01836-.001.00051c-.01989.00918-.03978.01938-.06019.03009a5.55141,5.55141,0,0,0-.60647.3545q-.18438.12547-.35806.26676l-.001.002c-.01887.01531-.03724.03112-.05611.04744l-.001.001a5.2324,5.2324,0,0,0-.47385.44784c-.01173.01377-.02448.02754-.03723.04132-.08569.09385-.16781.19128-.24586.29125-.0357.04488-.0709.09028-.10507.1367-.04182.05662-.08263.11375-.12089.17189l-.001.001c-.00816.01122-.0153.02193-.02193.03315-.03009.04437-.05917.08977-.08722.13568h-.001c-.06988.11272-.13669.22749-.1974.34583a5.03686,5.03686,0,0,0-.279.64064l-.06732.19689-.05815.19995-.01378.05049-.06019.253-.01938.102-.01785.103-.002.00612c-.00561.03315-.01071.06477-.0153.09844l-.02754.2132c-.00255.01836-.00357.03468-.00561.05l-.00358.04846-.00816.09742-.00357.04845-.00153.02449-.002.03468-.00255.10354c-.00306.06121-.00459.12242-.00459.18311v.04285h.00153a5.916,5.916,0,0,0,.17955,1.3527,6.39848,6.39848,0,0,0,.26319.79163c.051.12037.10507.23768.16322.35449l.001.001c.06427.13313.13568.2632.21015.39071q.03672.06122.075.12089h.00051c.026.04183.05254.08314.08008.12395.01326.01938.02653.03928.0403.05866V25.606c.08824.1316.18158.25809.27952.382q.10559.1293.21729.253c.02551.028.051.05611.077.08365.08824.09487.18006.18668.27441.27544q.192.17673.39684.33868c.08263.06427.16679.127.25248.18669.0556.04132.11578.07753.17291.11578l.08773.05662c.03009.01887.06019.0352.09028.05356.01632.01021.03366.01989.05.02907h.001c.03009.01836.06019.03673.09079.05407l.002.00051c.01173.00765.02346.01479.03622.02142l.18515.09641c.06121.03366.12548.06019.18872.09028.03163.01428.06274.02907.09436.04336.03214.01376.06274.02856.0959.04029l.19382.07855c.06478.02346.13109.04641.19689.06784.03264.01224.06529.024.09844.03418l.1.02907c.06682.01887.13313.03979.20045.05611l.2025.04845.051.01173.051.0102.102.01836c.13364.02805.2785.04437.42081.06274l.026.00357.025.002.04743.00357.09538.00816.0959.00714c.01275.001.00357.001.03519.00255l.0255.001.051.002.20607.00561.051.00153.051-.001.103-.00255h.00051c.07039,0,.18464-.00408.25452-.00918l.15455-.01071c.03366-.00306.06835-.00459.102-.00816l.102-.01224.2025-.0255c.02448-.00358.049-.00816.074-.01275.04234-.00612.08518-.01428.128-.02142.06733-.01224.13517-.023.20046-.03825l.19944-.04591c.03315-.00612.0658-.01632.09844-.02551l.09844-.027.12445-.03469c.024-.00663.04794-.01428.07141-.02193l.1923-.06477c.06477-.01989.12854-.0454.19128-.06988.06274-.025.12649-.04846.18872-.075l.15761-.07089.00051-.001.02652-.01072.09283-.04131.27085-.1367c.03876-.02142.077-.04336.11629-.0663l.001-.001a.20044.20044,0,0,0,.02091-.01071c.01173-.00714.02449-.01479.03673-.02091.11834-.06376.22953-.13925.34328-.21066q.14919-.09869.29226-.205a6.62618,6.62618,0,0,0,.69268-.59219c.027-.02652.05407-.053.08059-.08008q.075-.0765.14843-.15455c.13211-.14384.25809-.29329.37643-.44733.01531-.01989.03111-.04029.04591-.0607.03774-.04948.074-.09946.10966-.15V25.4132c.12038-.16883.23259-.34174.33562-.52027.01786-.0311.03622-.06171.05356-.09283a6.70337,6.70337,0,0,0,.58657-1.43125l.02653-.09181c.00816-.03112.01428-.06172.02193-.09284.01429-.06223.02908-.12395.04336-.18618.01683-.06172.0255-.12445.03775-.18669.0107-.06274.02244-.12445.03366-.1877.00969-.06376.01785-.13007.026-.19484l.002-.01734.01071-.08008c.00408-.03162.00919-.06733.0102-.09385.00561-.05815.0102-.11578.01479-.17291l.00612-.08569.002-.02193a.30789.30789,0,0,0,.00153-.03622l.002-.04641q.00689-.15991.00714-.31982a7.40746,7.40746,0,0,0-.08467-1.07777c-.02193-.14129-.04744-.28053-.07753-.41876v-.002c-.02346-.10916-.05-.2178-.078-.32491-.01378-.053-.02857-.10609-.04387-.15761v-.001c-.05662-.20046-.1219-.3953-.19586-.5876-.07753-.203-.16322-.40193-.25707-.59474-.03367-.07141-.06886-.14027-.10559-.20964-.06274-.12038-.129-.2377-.19842-.35347q-.06962-.11706-.14384-.23a7.22335,7.22335,0,0,0-.735-.95025c-.01785-.01938-.03622-.03928-.05508-.05866-.03265-.03621-.06682-.0714-.101-.1066a7.29455,7.29455,0,0,0-.59729-.55189c-.03673-.0301-.074-.06019-.11017-.08926a7.27387,7.27387,0,0,0-.986-.66207l-.001-.001c-.01887-.01071-.03723-.02193-.05611-.03213-.03672-.01989-.07294-.03979-.10966-.05917-.11273-.06019-.22647-.11527-.34123-.16832-.21423-.09742-.43-.18413-.64523-.26064-.04641-.0153-.09283-.03111-.13823-.04743l-.06835-.02347-.07039-.01989c-.09283-.02754-.18464-.05407-.27594-.08059-.18465-.04336-.36674-.09079-.54986-.12088-.126-.0255-.25809-.04285-.3902-.06019h-.001l-.026-.00357c-.04846-.00663-.09487-.01173-.14129-.01836-.08467-.00714-.16322-.01377-.24432-.01989l-.06018-.00561-.0301-.00153-.0153-.002-.03162-.002c-.04387-.00051-.08774-.00255-.13057-.00357q-.15761-.00612-.31319-.00612Zm-2.77629,7.75556h0Z" transform="translate(0 -0.0012)" style="fill:#6e7074"/></g><path d="M64.69315,14.75224H61.304v2.77148h3.937V18.367H60.27274V10.54668h4.91455v.84326H61.304v2.519h3.38916Z" transform="translate(0 -0.0012)" style="fill:#74767a"/><path d="M73.72391,10.54668v5.31738a2.49413,2.49413,0,0,1-.69531,1.81006,2.803,2.803,0,0,1-1.87207.78955l-.27393.01074a2.92658,2.92658,0,0,1-2.04639-.69287,2.47938,2.47938,0,0,1-.77344-1.90674V10.54668h1.02051v5.2959a1.63135,1.63135,0,0,0,1.79932,1.78857,1.80935,1.80935,0,0,0,1.34033-.46729,1.78565,1.78565,0,0,0,.46436-1.31592V10.54668Z" transform="translate(0 -0.0012)" style="fill:#74767a"/><path d="M79.91385,15.20342H78.07694V18.367H77.04032V10.54668h2.58887a3.06609,3.06609,0,0,1,2.0332.60156,2.16519,2.16519,0,0,1,.71143,1.751,2.103,2.103,0,0,1-.395,1.27295,2.3526,2.3526,0,0,1-1.09814.811l1.83691,3.31934V18.367H81.61112Zm-1.83691-.84326h1.58447a1.78706,1.78706,0,0,0,1.22168-.39795,1.34672,1.34672,0,0,0,.4541-1.06592,1.41629,1.41629,0,0,0-.43262-1.11328,1.82876,1.82876,0,0,0-1.24854-.39307h-1.5791Z" transform="translate(0 -0.0012)" style="fill:#74767a"/><path d="M91.52811,14.70928a4.83994,4.83994,0,0,1-.38672,2.00635,2.93028,2.93028,0,0,1-1.0957,1.30762,3.02462,3.02462,0,0,1-4.40186-1.29687,4.653,4.653,0,0,1-.40527-1.94727v-.564a4.78328,4.78328,0,0,1,.39209-1.99268,2.89826,2.89826,0,0,1,2.75-1.7832,3.02873,3.02873,0,0,1,1.65674.4541,2.92078,2.92078,0,0,1,1.104,1.31543,4.86393,4.86393,0,0,1,.38672,2.00635Zm-1.02588-.50488a3.50668,3.50668,0,0,0-.55859-2.13525,1.84349,1.84349,0,0,0-1.563-.74365,1.82239,1.82239,0,0,0-1.53857.74365,3.43341,3.43341,0,0,0-.57764,2.06543v.57471a3.50878,3.50878,0,0,0,.56689,2.11865,1.9851,1.9851,0,0,0,3.10693.043,3.49045,3.49045,0,0,0,.564-2.08643Z" transform="translate(0 -0.0012)" style="fill:#74767a"/><path d="M95.80008,15.30547V18.367H94.76883V10.54668h2.88428a2.89764,2.89764,0,0,1,2.01172.65527,2.22264,2.22264,0,0,1,.72754,1.73486,2.19054,2.19054,0,0,1-.71191,1.75342,3.02545,3.02545,0,0,1-2.03809.61523Zm0-.84326h1.853a1.8517,1.8517,0,0,0,1.26758-.39014,1.42619,1.42619,0,0,0,.44043-1.127,1.47419,1.47419,0,0,0-.44043-1.11914,1.73533,1.73533,0,0,0-1.2085-.436H95.80008Z" transform="translate(0 -0.0012)" style="fill:#74767a"/><path d="M107.823,14.75224h-3.38916v2.77148h3.937V18.367h-4.96826V10.54668h4.91455v.84326h-3.8833v2.519H107.823Z" transform="translate(0 -0.0012)" style="fill:#74767a"/><path d="M115.66678,16.3206h-3.27637l-.73584,2.04639H110.5911l2.98633-7.82031h.90234l2.9917,7.82031h-1.05811Zm-2.96484-.84326h2.65869l-1.332-3.65771Z" transform="translate(0 -0.0012)" style="fill:#74767a"/><path d="M126.22831,18.367h-1.03662l-3.937-6.02637V18.367h-1.03662V10.54668h1.03662l3.94775,6.05322V10.54668h1.02588Z" transform="translate(0 -0.0012)" style="fill:#74767a"/><path d="M139.9451,17.34111a2.38037,2.38037,0,0,1-1.10937.85107,4.46686,4.46686,0,0,1-1.65674.28223,3.21514,3.21514,0,0,1-1.69727-.44824,2.99294,2.99294,0,0,1-1.147-1.27588,4.4117,4.4117,0,0,1-.416-1.91748v-.68213a4.11387,4.11387,0,0,1,.82422-2.73926,2.87382,2.87382,0,0,1,2.31787-.97217,2.9654,2.9654,0,0,1,1.97119.626,2.72531,2.72531,0,0,1,.91309,1.7749h-1.03125a1.705,1.705,0,0,0-1.84766-1.55762,1.82587,1.82587,0,0,0-1.57129.72852,3.55709,3.55709,0,0,0-.53955,2.10986v.63965a3.33357,3.33357,0,0,0,.60156,2.09375,1.949,1.949,0,0,0,1.62744.77686,3.60563,3.60563,0,0,0,1.01514-.12842,1.57234,1.57234,0,0,0,.71973-.43408V15.31621h-1.81006v-.84326h2.83594Z" transform="translate(0 -0.0012)" style="fill:#74767a"/><path d="M148.86307,10.54668v5.31738a2.49413,2.49413,0,0,1-.69531,1.81006,2.803,2.803,0,0,1-1.87207.78955l-.27393.01074a2.92658,2.92658,0,0,1-2.04639-.69287,2.47938,2.47938,0,0,1-.77344-1.90674V10.54668h1.02051v5.2959a1.63135,1.63135,0,0,0,1.79932,1.78857,1.80935,1.80935,0,0,0,1.34033-.46729,1.78565,1.78565,0,0,0,.46436-1.31592V10.54668Z" transform="translate(0 -0.0012)" style="fill:#74767a"/><path d="M156.50272,16.3206h-3.27637l-.73584,2.04639H151.427l2.98633-7.82031h.90234l2.9917,7.82031H157.2493Zm-2.96484-.84326h2.65869l-1.332-3.65771Z" transform="translate(0 -0.0012)" style="fill:#74767a"/><path d="M163.92264,15.20342h-1.83691V18.367h-1.03662V10.54668H163.638a3.06609,3.06609,0,0,1,2.0332.60156,2.16519,2.16519,0,0,1,.71143,1.751,2.103,2.103,0,0,1-.395,1.27295,2.3526,2.3526,0,0,1-1.09814.811l1.83691,3.31934V18.367h-1.10645Zm-1.83691-.84326h1.58447a1.78706,1.78706,0,0,0,1.22168-.39795,1.34672,1.34672,0,0,0,.4541-1.06592,1.41629,1.41629,0,0,0-.43262-1.11328,1.82876,1.82876,0,0,0-1.24854-.39307h-1.5791Z" transform="translate(0 -0.0012)" style="fill:#74767a"/><path d="M169.52128,18.367V10.54668h2.20752a3.5545,3.5545,0,0,1,1.80469.45117,3.04591,3.04591,0,0,1,1.21094,1.28369,4.17059,4.17059,0,0,1,.43262,1.91211v.49951a4.199,4.199,0,0,1-.42676,1.939,3.00656,3.00656,0,0,1-1.21973,1.27832,3.77858,3.77858,0,0,1-1.84473.45654Zm1.03125-6.97705v6.13379h1.085a2.36107,2.36107,0,0,0,1.856-.7417,3.06666,3.06666,0,0,0,.66309-2.11279v-.457a3.11165,3.11165,0,0,0-.626-2.07227,2.22712,2.22712,0,0,0-1.7749-.75Z" transform="translate(0 -0.0012)" style="fill:#74767a"/><path d="M67.23612,31.43437a3.40021,3.40021,0,0,1-1.082,2.2627,3.54681,3.54681,0,0,1-2.42187.79688,3.258,3.258,0,0,1-2.625-1.17432,4.72555,4.72555,0,0,1-.98682-3.14209v-.88867a5.26211,5.26211,0,0,1,.46045-2.26611,3.43744,3.43744,0,0,1,1.3042-1.50146,3.63619,3.63619,0,0,1,1.95508-.52344,3.33775,3.33775,0,0,1,2.36133.82227,3.43981,3.43981,0,0,1,1.03467,2.27539H66.011a2.65633,2.65633,0,0,0-.689-1.60449,2.0827,2.0827,0,0,0-1.48193-.49658,2.18076,2.18076,0,0,0-1.83154.86426,3.96769,3.96769,0,0,0-.66309,2.4585v.89551a4.079,4.079,0,0,0,.62842,2.39551,2.03053,2.03053,0,0,0,1.7583.88916,2.34484,2.34484,0,0,0,1.55859-.46045,2.556,2.556,0,0,0,.72021-1.60254Z" transform="translate(0 -0.0012)" style="fill:#74767a"/><path d="M80.19461,30.04424a5.715,5.715,0,0,1-.457,2.37061,3.46072,3.46072,0,0,1-1.29492,1.5459,3.57222,3.57222,0,0,1-5.20166-1.5332,5.47449,5.47449,0,0,1-.47949-2.30078v-.6665a5.64621,5.64621,0,0,1,.46338-2.355,3.42869,3.42869,0,0,1,3.25-2.10742,3.5856,3.5856,0,0,1,1.9585.53613,3.45845,3.45845,0,0,1,1.3042,1.55566,5.74221,5.74221,0,0,1,.457,2.37061Zm-1.2124-.59668a4.14348,4.14348,0,0,0-.66016-2.52295,2.17641,2.17641,0,0,0-1.84717-.87939,2.15423,2.15423,0,0,0-1.81885.87939,4.06,4.06,0,0,0-.68213,2.44043v.6792a4.15239,4.15239,0,0,0,.66943,2.50439,2.34746,2.34746,0,0,0,3.67236.05078,4.12763,4.12763,0,0,0,.6665-2.46631Z" transform="translate(0 -0.0012)" style="fill:#74767a"/><path d="M93.3118,34.367H92.0867l-4.65283-7.12207V34.367h-1.2251V25.1248h1.2251l4.66553,7.15381V25.1248h1.2124Z" transform="translate(0 -0.0012)" style="fill:#74767a"/><path d="M102.38553,30.24736a5.7256,5.7256,0,0,1-2.28223-1.10791,2.11679,2.11679,0,0,1-.71387-1.62158,2.23626,2.23626,0,0,1,.873-1.80615,3.46974,3.46974,0,0,1,2.269-.71387,3.78264,3.78264,0,0,1,1.69775.36816,2.78808,2.78808,0,0,1,1.15527,1.01563,2.59276,2.59276,0,0,1,.40967,1.41553h-1.2251a1.69012,1.69012,0,0,0-.5332-1.32178,2.1674,2.1674,0,0,0-1.50439-.481,2.21691,2.21691,0,0,0-1.40576.39746,1.32483,1.32483,0,0,0-.50488,1.103,1.19284,1.19284,0,0,0,.47949.95752,4.70175,4.70175,0,0,0,1.63086.71533,7.54074,7.54074,0,0,1,1.80273.71484,2.72253,2.72253,0,0,1,.96484.91064,2.32084,2.32084,0,0,1,.31445,1.2251,2.16048,2.16048,0,0,1-.876,1.7998,3.73789,3.73789,0,0,1-2.34229.67578,4.33959,4.33959,0,0,1-1.77734-.36523,2.99093,2.99093,0,0,1-1.27295-.99951,2.443,2.443,0,0,1-.44727-1.44092h1.2251a1.59182,1.59182,0,0,0,.61865,1.32324,2.60439,2.60439,0,0,0,1.65381.48584,2.39694,2.39694,0,0,0,1.479-.39355,1.27834,1.27834,0,0,0,.51416-1.07275,1.25626,1.25626,0,0,0-.47607-1.05078A5.50292,5.50292,0,0,0,102.38553,30.24736Z" transform="translate(0 -0.0012)" style="fill:#74767a"/><path d="M118.06717,25.1248V31.409a2.948,2.948,0,0,1-.82227,2.13916,3.31234,3.31234,0,0,1-2.21191.93311l-.32373.0127a3.45989,3.45989,0,0,1-2.41846-.81885,2.92717,2.92717,0,0,1-.91406-2.25342V25.1248h1.20605v6.25879a2.13333,2.13333,0,1,0,4.25928.00635V25.1248Z" transform="translate(0 -0.0012)" style="fill:#74767a"/><path d="M125.40165,33.37041h4.37988V34.367h-5.605V25.1248h1.2251Z" transform="translate(0 -0.0012)" style="fill:#74767a"/><path d="M141.74344,26.12138h-2.9707V34.367h-1.2124V26.12138H134.596V25.1248h7.14746Z" transform="translate(0 -0.0012)" style="fill:#74767a"/><path d="M148.60819,34.367h-1.21875V25.1248h1.21875Z" transform="translate(0 -0.0012)" style="fill:#74767a"/><path d="M162.12479,34.367h-1.2251l-4.65283-7.12207V34.367h-1.2251V25.1248h1.2251l4.66553,7.15381V25.1248h1.2124Z" transform="translate(0 -0.0012)" style="fill:#74767a"/><path d="M175.29911,33.15459a2.81719,2.81719,0,0,1-1.31055,1.00635,5.308,5.308,0,0,1-1.9585.333,3.79589,3.79589,0,0,1-2.00586-.53027,3.52619,3.52619,0,0,1-1.355-1.50732,5.201,5.201,0,0,1-.49219-2.26611v-.80615a4.85941,4.85941,0,0,1,.97461-3.2373,3.39413,3.39413,0,0,1,2.73877-1.14893,3.50877,3.50877,0,0,1,2.32959.73926,3.22215,3.22215,0,0,1,1.0791,2.09814h-1.21875a2.01542,2.01542,0,0,0-2.18359-1.84082,2.157,2.157,0,0,0-1.85645.86084,4.20191,4.20191,0,0,0-.63818,2.49365v.75586a3.93819,3.93819,0,0,0,.71094,2.47461,2.30537,2.30537,0,0,0,1.92334.918,4.25778,4.25778,0,0,0,1.19971-.15186,1.85592,1.85592,0,0,0,.85059-.51318v-2.0708h-2.13916v-.99658h3.35156Z" transform="translate(0 -0.0012)" style="fill:#74767a"/></svg>