<svg data-name="Capa 1" xmlns="http://www.w3.org/2000/svg" viewBox="0 0 561.117 331.5"><g data-name="group-add" fill="#34a844"><path d="M280.5 153c43.35 0 76.5-33.15 76.5-76.5S323.85 0 280.5 0c-7.65 0-15.3 2.55-22.95 2.55 15.3 22.95 22.95 45.9 22.95 73.95s-7.65 51-22.95 73.95c7.65 0 15.3 2.55 22.95 2.55zM153 153c43.35 0 76.5-33.15 76.5-76.5S196.35 0 153 0 76.5 33.15 76.5 76.5 109.65 153 153 153zm168.3 56.1c20.4 17.851 35.7 43.351 35.7 71.4v51h76.5v-51c0-38.25-61.2-63.75-112.2-71.4zM153 204c-51 0-153 25.5-153 76.5v51h306v-51c0-51-102-76.5-153-76.5zM484.617 76.5c0-43.35-33.15-76.5-76.5-76.5-7.65 0-15.3 2.55-22.95 2.55 15.3 22.95 22.95 45.9 22.95 73.95s-7.65 51-22.95 73.95c7.65 0 15.3 2.55 22.95 2.55 43.35 0 76.5-33.15 76.5-76.5zM448.917 209.1c20.4 17.851 35.7 43.351 35.7 71.4v51h76.5v-51c0-38.25-61.2-63.75-112.2-71.4z"/></g></svg>